ISO-10303-21;
HEADER;
FILE_DESCRIPTION (( 'STEP AP214' ),
    '1' );
FILE_NAME ('battery holder.STEP',
    '2026-05-07T10:44:02',
    ( '' ),
    ( '' ),
    'SwSTEP 2.0',
    'SolidWorks 2024',
    '' );
FILE_SCHEMA (( 'AUTOMOTIVE_DESIGN' ));
ENDSEC;

DATA;
#1 = AXIS2_PLACEMENT_3D ( 'NONE', #707, #522, #196 ) ;
#2 = DIRECTION ( 'NONE',  ( -1.000000000000000000, 0.000000000000000000, -2.168404344971010347E-16 ) ) ;
#3 = VECTOR ( 'NONE', #359, 100.0000000000000000 ) ;
#4 = ORIENTED_EDGE ( 'NONE', *, *, #318, .F. ) ;
#5 = EDGE_CURVE ( 'NONE', #606, #1130, #15, .T. ) ;
#6 = DIRECTION ( 'NONE',  ( 0.000000000000000000, -1.000000000000000000, 0.000000000000000000 ) ) ;
#7 = CARTESIAN_POINT ( 'NONE',  ( 5.400386181927895102, 0.000000000000000000, -2.718652888821843305 ) ) ;
#8 = ORIENTED_EDGE ( 'NONE', *, *, #318, .T. ) ;
#9 = CARTESIAN_POINT ( 'NONE',  ( 10.81079949051929745, 0.000000000000000000, -2.718652888821843305 ) ) ;
#10 = ORIENTED_EDGE ( 'NONE', *, *, #178, .T. ) ;
#11 =( NAMED_UNIT ( * ) PLANE_ANGLE_UNIT ( ) SI_UNIT ( $, .RADIAN. ) );
#12 = CARTESIAN_POINT ( 'NONE',  ( 4.410413308591403236, 0.000000000000000000, 0.000000000000000000 ) ) ;
#13 = EDGE_CURVE ( 'NONE', #261, #1037, #638, .T. ) ;
#14 =( GEOMETRIC_REPRESENTATION_CONTEXT ( 3 ) GLOBAL_UNCERTAINTY_ASSIGNED_CONTEXT ( ( #291 ) ) GLOBAL_UNIT_ASSIGNED_CONTEXT ( ( #173, #11, #309 ) ) REPRESENTATION_CONTEXT ( 'NONE', 'WORKASPACE' ) );
#15 = LINE ( 'NONE', #1134, #1186 ) ;
#16 = CLOSED_SHELL ( 'NONE', ( #121, #147, #733, #1003, #311, #380, #878, #176, #839, #678, #257, #1093, #1283, #790, #558, #1195, #703, #280, #1147, #1101 ) ) ;
#17 = ORIENTED_EDGE ( 'NONE', *, *, #1011, .T. ) ;
#18 = DIRECTION ( 'NONE',  ( 0.000000000000000000, 0.000000000000000000, -1.000000000000000000 ) ) ;
#19 = DIRECTION ( 'NONE',  ( 0.000000000000000000, 0.000000000000000000, -1.000000000000000000 ) ) ;
#20 = CARTESIAN_POINT ( 'NONE',  ( 9.310799490519297450, 3.000000000000000000, -2.718652888821842861 ) ) ;
#21 = VERTEX_POINT ( 'NONE', #427 ) ;
#22 = CARTESIAN_POINT ( 'NONE',  ( 9.310799490519297450, 0.3000000000000000999, -2.418652888821833269 ) ) ;
#23 = VERTEX_POINT ( 'NONE', #770 ) ;
#24 = DIRECTION ( 'NONE',  ( -0.000000000000000000, -1.000000000000000000, -0.000000000000000000 ) ) ;
#25 = EDGE_CURVE ( 'NONE', #1120, #467, #58, .T. ) ;
#26 = EDGE_CURVE ( 'NONE', #1036, #689, #869, .T. ) ;
#27 = CARTESIAN_POINT ( 'NONE',  ( 6.100386181927894391, 1.000001200000000035, 3.611347111178158542 ) ) ;
#28 = VERTEX_POINT ( 'NONE', #355 ) ;
#29 = VECTOR ( 'NONE', #977, 100.0000000000000000 ) ;
#30 = FACE_OUTER_BOUND ( 'NONE', #548, .T. ) ;
#31 = EDGE_LOOP ( 'NONE', ( #378, #976, #1221, #600, #478, #1039, #1187, #75 ) ) ;
#32 = VECTOR ( 'NONE', #341, 100.0000000000000000 ) ;
#33 = CARTESIAN_POINT ( 'NONE',  ( 10.71501657624113690, -3.000000000000000000, 0.6021165831146435554 ) ) ;
#34 = DIRECTION ( 'NONE',  ( 0.000000000000000000, -1.000000000000000000, 0.000000000000000000 ) ) ;
#35 = EDGE_CURVE ( 'NONE', #270, #255, #111, .T. ) ;
#36 = DIRECTION ( 'NONE',  ( -0.000000000000000000, 1.000000000000000000, -0.000000000000000000 ) ) ;
#37 = CARTESIAN_POINT ( 'NONE',  ( 10.51079949051929674, 0.3000000000000000999, -2.418652888821833269 ) ) ;
#38 = DIRECTION ( 'NONE',  ( -0.000000000000000000, 1.000000000000000000, -0.000000000000000000 ) ) ;
#39 = CARTESIAN_POINT ( 'NONE',  ( 6.100386181927894391, 1.000001200000000035, -2.418652888821833269 ) ) ;
#40 = EDGE_CURVE ( 'NONE', #886, #1270, #745, .T. ) ;
#41 = DIRECTION ( 'NONE',  ( -0.000000000000000000, -0.000000000000000000, -1.000000000000000000 ) ) ;
#42 = VECTOR ( 'NONE', #104, 100.0000000000000000 ) ;
#43 = DIRECTION ( 'NONE',  ( -1.217349807703022362E-16, 0.000000000000000000, -1.000000000000000000 ) ) ;
#44 = VECTOR ( 'NONE', #1104, 100.0000000000000000 ) ;
#45 = CARTESIAN_POINT ( 'NONE',  ( 9.810799490519297450, -3.000000000000000000, 3.911347111178159253 ) ) ;
#46 = ADVANCED_FACE ( 'NONE', ( #864 ), #1063, .T. ) ;
#47 = CYLINDRICAL_SURFACE ( 'NONE', #402, 0.1994162540431053954 ) ;
#48 = PLANE ( 'NONE',  #623 ) ;
#49 = DIRECTION ( 'NONE',  ( 5.421010862427525868E-17, 0.000000000000000000, -1.000000000000000000 ) ) ;
#50 = PLANE ( 'NONE',  #632 ) ;
#51 = VERTEX_POINT ( 'NONE', #666 ) ;
#52 = CARTESIAN_POINT ( 'NONE',  ( 6.400386181927894214, 0.000000000000000000, 3.911347111178156588 ) ) ;
#53 = ORIENTED_EDGE ( 'NONE', *, *, #275, .T. ) ;
#54 = DIRECTION ( 'NONE',  ( 0.000000000000000000, 0.000000000000000000, -1.000000000000000000 ) ) ;
#55 = VECTOR ( 'NONE', #1118, 100.0000000000000000 ) ;
#56 = DIRECTION ( 'NONE',  ( 0.000000000000000000, 0.000000000000000000, -1.000000000000000000 ) ) ;
#57 = ORIENTED_EDGE ( 'NONE', *, *, #5, .T. ) ;
#58 = LINE ( 'NONE', #470, #224 ) ;
#59 = ORIENTED_EDGE ( 'NONE', *, *, #1091, .F. ) ;
#60 = CARTESIAN_POINT ( 'NONE',  ( 9.310799490519299226, 0.3000000000000000999, 3.611347111178158542 ) ) ;
#61 = AXIS2_PLACEMENT_3D ( 'NONE', #517, #922, #19 ) ;
#62 = ORIENTED_EDGE ( 'NONE', *, *, #352, .F. ) ;
#63 = DIRECTION ( 'NONE',  ( -0.000000000000000000, -1.000000000000000000, -0.000000000000000000 ) ) ;
#64 = ORIENTED_EDGE ( 'NONE', *, *, #1188, .T. ) ;
#65 = CARTESIAN_POINT ( 'NONE',  ( 5.400386181927895102, -3.000000000000000000, 3.911347111178159253 ) ) ;
#66 = DIRECTION ( 'NONE',  ( 0.000000000000000000, 1.000000000000000000, 0.000000000000000000 ) ) ;
#67 = VECTOR ( 'NONE', #726, 100.0000000000000000 ) ;
#68 = ORIENTED_EDGE ( 'NONE', *, *, #1203, .F. ) ;
#69 = LINE ( 'NONE', #876, #385 ) ;
#70 = EDGE_CURVE ( 'NONE', #388, #270, #563, .T. ) ;
#71 = ORIENTED_EDGE ( 'NONE', *, *, #40, .F. ) ;
#72 = DIRECTION ( 'NONE',  ( -0.000000000000000000, 0.000000000000000000, 1.000000000000000000 ) ) ;
#73 = LINE ( 'NONE', #987, #738 ) ;
#74 = CARTESIAN_POINT ( 'NONE',  ( 10.51079949051929674, 1.000001200000000035, 3.611347111178158542 ) ) ;
#75 = ORIENTED_EDGE ( 'NONE', *, *, #514, .T. ) ;
#76 = CARTESIAN_POINT ( 'NONE',  ( 5.400386181927895990, -3.000000000000000000, -2.718652888821843305 ) ) ;
#77 = ORIENTED_EDGE ( 'NONE', *, *, #824, .F. ) ;
#78 = EDGE_CURVE ( 'NONE', #973, #369, #345, .T. ) ;
#79 = DIRECTION ( 'NONE',  ( -1.000000000000000000, 0.000000000000000000, -2.168404344971010347E-16 ) ) ;
#80 = LINE ( 'NONE', #153, #539 ) ;
#81 = EDGE_CURVE ( 'NONE', #935, #1159, #1044, .T. ) ;
#82 = AXIS2_PLACEMENT_3D ( 'NONE', #91, #579, #1183 ) ;
#83 = CARTESIAN_POINT ( 'NONE',  ( 6.400386181927894214, 1.000000000000000000, 3.911347111178156588 ) ) ;
#84 = ORIENTED_EDGE ( 'NONE', *, *, #26, .T. ) ;
#85 = CARTESIAN_POINT ( 'NONE',  ( 6.700386181927894924, -2.700000000000000178, 0.2113471111781589640 ) ) ;
#86 = EDGE_CURVE ( 'NONE', #28, #140, #941, .T. ) ;
#87 = ORIENTED_EDGE ( 'NONE', *, *, #980, .T. ) ;
#88 = DIRECTION ( 'NONE',  ( 0.000000000000000000, -1.000000000000000000, 0.000000000000000000 ) ) ;
#89 = DIRECTION ( 'NONE',  ( 0.000000000000000000, -1.000000000000000000, 0.000000000000000000 ) ) ;
#90 = VECTOR ( 'NONE', #663, 100.0000000000000000 ) ;
#91 = CARTESIAN_POINT ( 'NONE',  ( 4.410413308591403236, 0.3000000000000000999, 0.000000000000000000 ) ) ;
#92 = ORIENTED_EDGE ( 'NONE', *, *, #1185, .F. ) ;
#93 = DIRECTION ( 'NONE',  ( 0.000000000000000000, 0.000000000000000000, 1.000000000000000000 ) ) ;
#94 = DIRECTION ( 'NONE',  ( 1.000000000000000000, -0.000000000000000000, 5.421010862427525868E-17 ) ) ;
#95 = ORIENTED_EDGE ( 'NONE', *, *, #1012, .F. ) ;
#96 = DIRECTION ( 'NONE',  ( 0.000000000000000000, 1.000000000000000000, 0.000000000000000000 ) ) ;
#97 = CARTESIAN_POINT ( 'NONE',  ( 11.11079949051929816, -3.000000000000000000, 0.2113471111781589640 ) ) ;
#98 = VECTOR ( 'NONE', #923, 100.0000000000000000 ) ;
#99 = VECTOR ( 'NONE', #1239, 100.0000000000000000 ) ;
#100 = ORIENTED_EDGE ( 'NONE', *, *, #518, .T. ) ;
#101 = CARTESIAN_POINT ( 'NONE',  ( 5.900386181927895102, -3.000000000000000000, 3.911347111178158809 ) ) ;
#102 = ORIENTED_EDGE ( 'NONE', *, *, #131, .T. ) ;
#103 = CYLINDRICAL_SURFACE ( 'NONE', #61, 0.1994162540431053954 ) ;
#104 = DIRECTION ( 'NONE',  ( 1.046590332414362864E-16, 0.000000000000000000, -1.000000000000000000 ) ) ;
#105 = ORIENTED_EDGE ( 'NONE', *, *, #86, .F. ) ;
#106 = LINE ( 'NONE', #1109, #44 ) ;
#107 = SURFACE_STYLE_FILL_AREA ( #1273 ) ;
#108 = PLANE ( 'NONE',  #887 ) ;
#109 = AXIS2_PLACEMENT_3D ( 'NONE', #981, #577, #477 ) ;
#110 = VERTEX_POINT ( 'NONE', #141 ) ;
#111 = CIRCLE ( 'NONE', #1126, 0.1994162540431053954 ) ;
#112 = EDGE_CURVE ( 'NONE', #140, #1027, #466, .T. ) ;
#113 = CARTESIAN_POINT ( 'NONE',  ( 5.900386181927895102, -2.700000000000000178, 1.011347111178158897 ) ) ;
#114 = ORIENTED_EDGE ( 'NONE', *, *, #861, .F. ) ;
#115 = ADVANCED_FACE ( 'NONE', ( #459 ), #149, .T. ) ;
#116 = DIRECTION ( 'NONE',  ( -0.000000000000000000, 0.000000000000000000, -1.000000000000000000 ) ) ;
#117 = DIRECTION ( 'NONE',  ( 1.176083712526648949E-16, -0.000000000000000000, 1.000000000000000000 ) ) ;
#118 = VERTEX_POINT ( 'NONE', #269 ) ;
#119 = CARTESIAN_POINT ( 'NONE',  ( 10.81079949051929745, 0.000000000000000000, 3.911347111178156588 ) ) ;
#120 = PLANE ( 'NONE',  #1184 ) ;
#121 = ADVANCED_FACE ( 'NONE', ( #660 ), #47, .F. ) ;
#122 = DIRECTION ( 'NONE',  ( 0.000000000000000000, 0.000000000000000000, 1.000000000000000000 ) ) ;
#123 = EDGE_CURVE ( 'NONE', #51, #461, #1241, .T. ) ;
#124 = ORIENTED_EDGE ( 'NONE', *, *, #275, .F. ) ;
#125 = CIRCLE ( 'NONE', #765, 0.1994162540431053954 ) ;
#126 = CARTESIAN_POINT ( 'NONE',  ( 9.310799490519297450, 3.000000000000000000, -2.718652888821842861 ) ) ;
#127 = ORIENTED_EDGE ( 'NONE', *, *, #1144, .F. ) ;
#128 = AXIS2_PLACEMENT_3D ( 'NONE', #491, #919, #500 ) ;
#129 = DIRECTION ( 'NONE',  ( 0.000000000000000000, -1.000000000000000000, 0.000000000000000000 ) ) ;
#130 = LINE ( 'NONE', #543, #386 ) ;
#131 = EDGE_CURVE ( 'NONE', #51, #914, #246, .T. ) ;
#132 = ORIENTED_EDGE ( 'NONE', *, *, #181, .F. ) ;
#133 = VERTEX_POINT ( 'NONE', #656 ) ;
#134 = EDGE_CURVE ( 'NONE', #777, #28, #953, .T. ) ;
#135 = DIRECTION ( 'NONE',  ( 0.000000000000000000, -1.000000000000000000, 0.000000000000000000 ) ) ;
#136 = PRESENTATION_LAYER_ASSIGNMENT (  '', '', ( #376 ) ) ;
#137 = PLANE ( 'NONE',  #290 ) ;
#138 = EDGE_CURVE ( 'NONE', #634, #777, #569, .T. ) ;
#139 = CARTESIAN_POINT ( 'NONE',  ( 11.11079949051929816, -3.000000000000000000, 0.2113471111781589640 ) ) ;
#140 = VERTEX_POINT ( 'NONE', #1160 ) ;
#141 = CARTESIAN_POINT ( 'NONE',  ( 10.31079949051929923, 0.000000000000000000, -2.718652888821843305 ) ) ;
#142 = CARTESIAN_POINT ( 'NONE',  ( 10.81079949051929745, 1.000000000000000000, 3.911347111178156588 ) ) ;
#143 = ORIENTED_EDGE ( 'NONE', *, *, #264, .T. ) ;
#144 = AXIS2_PLACEMENT_3D ( 'NONE', #350, #716, #327 ) ;
#145 = FACE_OUTER_BOUND ( 'NONE', #1199, .T. ) ;
#146 = PLANE ( 'NONE',  #1227 ) ;
#147 = ADVANCED_FACE ( 'NONE', ( #161 ), #573, .F. ) ;
#148 = ORIENTED_EDGE ( 'NONE', *, *, #921, .T. ) ;
#149 = PLANE ( 'NONE',  #964 ) ;
#150 = ORIENTED_EDGE ( 'NONE', *, *, #1281, .F. ) ;
#151 = VECTOR ( 'NONE', #171, 100.0000000000000000 ) ;
#152 = FACE_OUTER_BOUND ( 'NONE', #1069, .T. ) ;
#153 = CARTESIAN_POINT ( 'NONE',  ( 11.11079949051929816, -2.700000000000000178, 1.011347111178159119 ) ) ;
#154 = CARTESIAN_POINT ( 'NONE',  ( 10.31079949051929923, -3.000000000000000000, 3.911347111178158809 ) ) ;
#155 = ORIENTED_EDGE ( 'NONE', *, *, #134, .T. ) ;
#156 = DIRECTION ( 'NONE',  ( -1.046590332414362864E-16, -0.000000000000000000, 1.000000000000000000 ) ) ;
#157 = EDGE_CURVE ( 'NONE', #133, #1165, #406, .T. ) ;
#158 = LINE ( 'NONE', #965, #432 ) ;
#159 = DIRECTION ( 'NONE',  ( 0.000000000000000000, -0.000000000000000000, -1.000000000000000000 ) ) ;
#160 = ORIENTED_EDGE ( 'NONE', *, *, #497, .T. ) ;
#161 = FACE_OUTER_BOUND ( 'NONE', #794, .T. ) ;
#162 = AXIS2_PLACEMENT_3D ( 'NONE', #1292, #96, #403 ) ;
#163 = EDGE_LOOP ( 'NONE', ( #1127, #53, #520, #227, #838, #906, #421, #892 ) ) ;
#164 = CARTESIAN_POINT ( 'NONE',  ( 10.51079949051929674, 1.000001200000000035, -2.418652888821833269 ) ) ;
#165 = DIRECTION ( 'NONE',  ( -0.000000000000000000, -1.000000000000000000, -0.000000000000000000 ) ) ;
#166 = AXIS2_PLACEMENT_3D ( 'NONE', #368, #890, #773 ) ;
#167 = EDGE_CURVE ( 'NONE', #487, #1037, #505, .T. ) ;
#168 = ORIENTED_EDGE ( 'NONE', *, *, #499, .F. ) ;
#169 =( NAMED_UNIT ( * ) PLANE_ANGLE_UNIT ( ) SI_UNIT ( $, .RADIAN. ) );
#170 = EDGE_LOOP ( 'NONE', ( #1249, #1052, #395, #717 ) ) ;
#171 = DIRECTION ( 'NONE',  ( 1.000000000000000000, -0.000000000000000000, -1.217349807703022116E-16 ) ) ;
#172 = LINE ( 'NONE', #259, #237 ) ;
#173 =( LENGTH_UNIT ( ) NAMED_UNIT ( * ) SI_UNIT ( .CENTI., .METRE. ) );
#174 = VERTEX_POINT ( 'NONE', #298 ) ;
#175 = DIRECTION ( 'NONE',  ( 0.000000000000000000, -1.000000000000000000, 0.000000000000000000 ) ) ;
#176 = ADVANCED_FACE ( 'NONE', ( #400 ), #278, .T. ) ;
#177 = ORIENTED_EDGE ( 'NONE', *, *, #561, .T. ) ;
#178 = EDGE_CURVE ( 'NONE', #299, #1212, #795, .T. ) ;
#179 = DIRECTION ( 'NONE',  ( -0.000000000000000000, 0.000000000000000000, -1.000000000000000000 ) ) ;
#180 = LINE ( 'NONE', #375, #1193 ) ;
#181 = EDGE_CURVE ( 'NONE', #938, #436, #900, .T. ) ;
#182 = MECHANICAL_DESIGN_GEOMETRIC_PRESENTATION_REPRESENTATION (  '', ( #1085 ), #14 ) ;
#183 = VECTOR ( 'NONE', #613, 100.0000000000000000 ) ;
#184 = FACE_OUTER_BOUND ( 'NONE', #1217, .T. ) ;
#185 = VERTEX_POINT ( 'NONE', #1000 ) ;
#186 = CARTESIAN_POINT ( 'NONE',  ( 4.900386181927895102, 1.000000000000000000, -5.128696803102667327E-16 ) ) ;
#187 = EDGE_LOOP ( 'NONE', ( #337, #706, #1243, #439 ) ) ;
#188 = CARTESIAN_POINT ( 'NONE',  ( 9.310799490519297450, 1.000000000000000222, -2.718652888821842861 ) ) ;
#189 = DIRECTION ( 'NONE',  ( 0.000000000000000000, 0.000000000000000000, -1.000000000000000000 ) ) ;
#190 = ORIENTED_EDGE ( 'NONE', *, *, #352, .T. ) ;
#191 = DIRECTION ( 'NONE',  ( -1.046590332414362988E-16, 0.000000000000000000, 1.000000000000000000 ) ) ;
#192 = VECTOR ( 'NONE', #859, 100.0000000000000000 ) ;
#193 =( LENGTH_UNIT ( ) NAMED_UNIT ( * ) SI_UNIT ( .CENTI., .METRE. ) );
#194 = VECTOR ( 'NONE', #1155, 100.0000000000000000 ) ;
#195 = ORIENTED_EDGE ( 'NONE', *, *, #1073, .F. ) ;
#196 = DIRECTION ( 'NONE',  ( 0.000000000000000000, -0.000000000000000000, 1.000000000000000000 ) ) ;
#197 = ORIENTED_EDGE ( 'NONE', *, *, #746, .F. ) ;
#198 = PLANE ( 'NONE',  #144 ) ;
#199 = COLOUR_RGB ( '',0.7921568627450980005, 0.8196078431372548767, 0.9333333333333333481 ) ;
#200 = ORIENTED_EDGE ( 'NONE', *, *, #544, .F. ) ;
#201 = CARTESIAN_POINT ( 'NONE',  ( 5.900386181927895102, -3.000000000000000000, 3.911347111178158809 ) ) ;
#202 = FACE_OUTER_BOUND ( 'NONE', #527, .T. ) ;
#203 = CARTESIAN_POINT ( 'NONE',  ( 9.310799490519297450, 0.000000000000000000, -2.718652888821842861 ) ) ;
#204 = VECTOR ( 'NONE', #272, 100.0000000000000000 ) ;
#205 = VECTOR ( 'NONE', #524, 100.0000000000000000 ) ;
#206 = ORIENTED_EDGE ( 'NONE', *, *, #544, .T. ) ;
#207 = CARTESIAN_POINT ( 'NONE',  ( 5.900386181927895102, 0.000000000000000000, 3.911347111178158809 ) ) ;
#208 = ORIENTED_EDGE ( 'NONE', *, *, #1162, .T. ) ;
#209 = MANIFOLD_SOLID_BREP ( 'Body-Move/Copy1', #16 ) ;
#210 = FILL_AREA_STYLE_COLOUR ( '', #917 ) ;
#211 = DIRECTION ( 'NONE',  ( 1.046590332414362864E-16, 0.000000000000000000, 1.000000000000000000 ) ) ;
#212 = EDGE_CURVE ( 'NONE', #21, #807, #69, .T. ) ;
#213 = VERTEX_POINT ( 'NONE', #1269 ) ;
#214 = EDGE_CURVE ( 'NONE', #261, #763, #990, .T. ) ;
#215 = EDGE_CURVE ( 'NONE', #222, #317, #983, .T. ) ;
#216 = LINE ( 'NONE', #942, #704 ) ;
#217 = CARTESIAN_POINT ( 'NONE',  ( 10.31079949051929923, -3.000000000000000000, 0.2113471111781589085 ) ) ;
#218 = CARTESIAN_POINT ( 'NONE',  ( 10.71501657624113690, -2.700000000000000178, 0.4027003290715381878 ) ) ;
#219 = CIRCLE ( 'NONE', #399, 0.1994162540431053954 ) ;
#220 = ORIENTED_EDGE ( 'NONE', *, *, #25, .F. ) ;
#221 = CARTESIAN_POINT ( 'NONE',  ( 4.396272711341597251E-16, 1.000000000000000000, 3.611347111178159430 ) ) ;
#222 = VERTEX_POINT ( 'NONE', #76 ) ;
#223 = CARTESIAN_POINT ( 'NONE',  ( 5.400386181927895990, -3.000000000000000000, -2.718652888821843305 ) ) ;
#224 = VECTOR ( 'NONE', #673, 100.0000000000000000 ) ;
#225 = CARTESIAN_POINT ( 'NONE',  ( 5.400386181927895102, -3.000000000000000000, 3.911347111178159253 ) ) ;
#226 = PLANE ( 'NONE',  #778 ) ;
#227 = ORIENTED_EDGE ( 'NONE', *, *, #1091, .T. ) ;
#228 = VECTOR ( 'NONE', #1002, 100.0000000000000000 ) ;
#229 = CARTESIAN_POINT ( 'NONE',  ( 4.900386181927895990, 1.000000000000000000, 3.611347111178158542 ) ) ;
#230 = ORIENTED_EDGE ( 'NONE', *, *, #811, .F. ) ;
#231 = DIRECTION ( 'NONE',  ( 0.000000000000000000, 1.000000000000000000, 0.000000000000000000 ) ) ;
#232 = ADVANCED_FACE ( 'NONE', ( #786 ), #486, .F. ) ;
#233 = LINE ( 'NONE', #932, #274 ) ;
#234 = EDGE_CURVE ( 'NONE', #759, #651, #285, .T. ) ;
#235 = ORIENTED_EDGE ( 'NONE', *, *, #1242, .T. ) ;
#236 = LINE ( 'NONE', #241, #367 ) ;
#237 = VECTOR ( 'NONE', #1054, 100.0000000000000000 ) ;
#238 = CARTESIAN_POINT ( 'NONE',  ( 10.31079949051929923, -3.000000000000000000, 3.911347111178158809 ) ) ;
#239 = LINE ( 'NONE', #139, #1111 ) ;
#240 = CARTESIAN_POINT ( 'NONE',  ( 6.100386181927894391, 1.000001200000000035, 3.611347111178158542 ) ) ;
#241 = CARTESIAN_POINT ( 'NONE',  ( 11.11079949051929816, -2.700000000000000178, 0.2113471111781589640 ) ) ;
#242 = ORIENTED_EDGE ( 'NONE', *, *, #418, .T. ) ;
#243 = DIRECTION ( 'NONE',  ( -1.000000000000000000, 0.000000000000000000, 1.217349807703022362E-16 ) ) ;
#244 = EDGE_CURVE ( 'NONE', #952, #494, #1084, .T. ) ;
#245 = DIRECTION ( 'NONE',  ( -0.000000000000000000, -1.000000000000000000, -0.000000000000000000 ) ) ;
#246 = LINE ( 'NONE', #1166, #1086 ) ;
#247 = EDGE_LOOP ( 'NONE', ( #897, #868, #818, #596 ) ) ;
#248 = VECTOR ( 'NONE', #2, 100.0000000000000000 ) ;
#249 = CARTESIAN_POINT ( 'NONE',  ( 9.310799490519299226, 1.000001200000000035, 3.611347111178158542 ) ) ;
#250 = LINE ( 'NONE', #266, #1139 ) ;
#251 = CARTESIAN_POINT ( 'NONE',  ( 10.31079949051929923, 0.000000000000000000, 3.911347111178158809 ) ) ;
#252 = CARTESIAN_POINT ( 'NONE',  ( 5.400386181927895102, -3.000000000000000000, 3.911347111178159253 ) ) ;
#253 = EDGE_CURVE ( 'NONE', #877, #1092, #493, .T. ) ;
#254 = ADVANCED_FACE ( 'NONE', ( #312 ), #198, .F. ) ;
#255 = VERTEX_POINT ( 'NONE', #306 ) ;
#256 = VECTOR ( 'NONE', #842, 100.0000000000000000 ) ;
#257 = ADVANCED_FACE ( 'NONE', ( #1029 ), #108, .F. ) ;
#258 = CARTESIAN_POINT ( 'NONE',  ( 10.81079949051929745, 0.000000000000000000, 3.911347111178156588 ) ) ;
#259 = CARTESIAN_POINT ( 'NONE',  ( 10.81079949051929745, 0.000000000000000000, 3.911347111178156588 ) ) ;
#260 = CARTESIAN_POINT ( 'NONE',  ( 6.304603267649733667, -3.000000000000000000, 0.4027003290715381878 ) ) ;
#261 = VERTEX_POINT ( 'NONE', #618 ) ;
#262 = DIRECTION ( 'NONE',  ( -0.000000000000000000, 1.000000000000000000, -0.000000000000000000 ) ) ;
#263 = ORIENTED_EDGE ( 'NONE', *, *, #112, .T. ) ;
#264 = EDGE_CURVE ( 'NONE', #467, #185, #1004, .T. ) ;
#265 = DIRECTION ( 'NONE',  ( 0.000000000000000000, -0.000000000000000000, 1.000000000000000000 ) ) ;
#266 = CARTESIAN_POINT ( 'NONE',  ( 6.400386181927894214, 1.000000000000000000, -2.718652888821843305 ) ) ;
#267 = LINE ( 'NONE', #498, #531 ) ;
#268 = ORIENTED_EDGE ( 'NONE', *, *, #1100, .F. ) ;
#269 = CARTESIAN_POINT ( 'NONE',  ( 10.31079949051929923, -3.000000000000000000, -2.718652888821843305 ) ) ;
#270 = VERTEX_POINT ( 'NONE', #708 ) ;
#271 = CYLINDRICAL_SURFACE ( 'NONE', #496, 0.1994162540431053954 ) ;
#272 = DIRECTION ( 'NONE',  ( 0.000000000000000000, 0.000000000000000000, -1.000000000000000000 ) ) ;
#273 = VECTOR ( 'NONE', #1286, 100.0000000000000000 ) ;
#274 = VECTOR ( 'NONE', #958, 100.0000000000000000 ) ;
#275 = EDGE_CURVE ( 'NONE', #767, #929, #1107, .T. ) ;
#276 = CARTESIAN_POINT ( 'NONE',  ( 6.304603267649733667, -2.700000000000000178, 0.6021165831146435554 ) ) ;
#277 = ORIENTED_EDGE ( 'NONE', *, *, #1214, .T. ) ;
#278 = PLANE ( 'NONE',  #82 ) ;
#279 = ORIENTED_EDGE ( 'NONE', *, *, #1011, .F. ) ;
#280 = ADVANCED_FACE ( 'NONE', ( #624 ), #431, .T. ) ;
#281 = LINE ( 'NONE', #65, #192 ) ;
#282 =( NAMED_UNIT ( * ) PLANE_ANGLE_UNIT ( ) SI_UNIT ( $, .RADIAN. ) );
#283 = FACE_OUTER_BOUND ( 'NONE', #589, .T. ) ;
#284 = ORIENTED_EDGE ( 'NONE', *, *, #313, .T. ) ;
#285 = LINE ( 'NONE', #85, #1213 ) ;
#286 = ORIENTED_EDGE ( 'NONE', *, *, #416, .F. ) ;
#287 = LINE ( 'NONE', #902, #1132 ) ;
#288 = VERTEX_POINT ( 'NONE', #1246 ) ;
#289 = SHAPE_DEFINITION_REPRESENTATION ( #294, #645 ) ;
#290 = AXIS2_PLACEMENT_3D ( 'NONE', #1137, #949, #925 ) ;
#291 = UNCERTAINTY_MEASURE_WITH_UNIT (LENGTH_MEASURE( 1.000000000000000082E-05 ), #173, 'distance_accuracy_value', 'NONE');
#292 = ORIENTED_EDGE ( 'NONE', *, *, #1113, .T. ) ;
#293 = FILL_AREA_STYLE ('',( #705 ) ) ;
#294 = PRODUCT_DEFINITION_SHAPE ( 'NONE', 'NONE',  #592 ) ;
#295 = ORIENTED_EDGE ( 'NONE', *, *, #40, .T. ) ;
#296 = LINE ( 'NONE', #409, #830 ) ;
#297 = ORIENTED_EDGE ( 'NONE', *, *, #362, .F. ) ;
#298 = CARTESIAN_POINT ( 'NONE',  ( 4.900386181927895102, 1.000000000000000000, -2.418652888821833269 ) ) ;
#299 = VERTEX_POINT ( 'NONE', #519 ) ;
#300 = LINE ( 'NONE', #9, #908 ) ;
#301 = ORIENTED_EDGE ( 'NONE', *, *, #253, .T. ) ;
#302 = VECTOR ( 'NONE', #761, 100.0000000000000000 ) ;
#303 = ORIENTED_EDGE ( 'NONE', *, *, #214, .T. ) ;
#304 = PLANE ( 'NONE',  #735 ) ;
#305 = EDGE_CURVE ( 'NONE', #1251, #255, #1017, .T. ) ;
#306 = CARTESIAN_POINT ( 'NONE',  ( 10.71501657624113690, -3.000000000000000000, 0.8015328371577489230 ) ) ;
#307 = ORIENTED_EDGE ( 'NONE', *, *, #1214, .F. ) ;
#308 = LINE ( 'NONE', #607, #447 ) ;
#309 =( NAMED_UNIT ( * ) SI_UNIT ( $, .STERADIAN. ) SOLID_ANGLE_UNIT ( ) );
#310 = EDGE_CURVE ( 'NONE', #1032, #21, #844, .T. ) ;
#311 = ADVANCED_FACE ( 'NONE', ( #536 ), #604, .F. ) ;
#312 = FACE_OUTER_BOUND ( 'NONE', #479, .T. ) ;
#313 = EDGE_CURVE ( 'NONE', #967, #973, #526, .T. ) ;
#314 = VECTOR ( 'NONE', #815, 100.0000000000000000 ) ;
#315 = ORIENTED_EDGE ( 'NONE', *, *, #646, .T. ) ;
#316 = CARTESIAN_POINT ( 'NONE',  ( 10.81079949051929745, 1.000000000000000000, -2.718652888821843305 ) ) ;
#317 = VERTEX_POINT ( 'NONE', #7 ) ;
#318 = EDGE_CURVE ( 'NONE', #390, #970, #419, .T. ) ;
#319 = DIRECTION ( 'NONE',  ( -1.000000000000000000, 0.000000000000000000, -0.000000000000000000 ) ) ;
#320 = DIRECTION ( 'NONE',  ( 0.000000000000000000, -0.000000000000000000, 1.000000000000000000 ) ) ;
#321 = VECTOR ( 'NONE', #849, 100.0000000000000000 ) ;
#322 = ORIENTED_EDGE ( 'NONE', *, *, #138, .F. ) ;
#323 = DIRECTION ( 'NONE',  ( -1.176083712526648949E-16, 0.000000000000000000, -1.000000000000000000 ) ) ;
#324 = LINE ( 'NONE', #718, #67 ) ;
#325 = ORIENTED_EDGE ( 'NONE', *, *, #921, .F. ) ;
#326 = LINE ( 'NONE', #223, #55 ) ;
#327 = DIRECTION ( 'NONE',  ( 0.000000000000000000, 0.000000000000000000, 1.000000000000000000 ) ) ;
#328 = ORIENTED_EDGE ( 'NONE', *, *, #234, .F. ) ;
#329 = DIRECTION ( 'NONE',  ( 0.000000000000000000, -0.000000000000000000, -1.000000000000000000 ) ) ;
#330 = EDGE_LOOP ( 'NONE', ( #1021, #628, #297, #1010 ) ) ;
#331 = CARTESIAN_POINT ( 'NONE',  ( 6.400386181927894214, 0.000000000000000000, 3.911347111178156588 ) ) ;
#332 = CARTESIAN_POINT ( 'NONE',  ( 9.310799490519299226, 3.000000000000000000, 3.911347111178159253 ) ) ;
#333 = AXIS2_PLACEMENT_3D ( 'NONE', #972, #66, #1259 ) ;
#334 = ORIENTED_EDGE ( 'NONE', *, *, #81, .F. ) ;
#335 = ORIENTED_EDGE ( 'NONE', *, *, #822, .F. ) ;
#336 = VECTOR ( 'NONE', #503, 100.0000000000000000 ) ;
#337 = ORIENTED_EDGE ( 'NONE', *, *, #771, .F. ) ;
#338 = DIRECTION ( 'NONE',  ( 1.000000000000000000, 0.000000000000000000, -0.000000000000000000 ) ) ;
#339 = CARTESIAN_POINT ( 'NONE',  ( 10.31079949051929923, 0.000000000000000000, 3.911347111178158809 ) ) ;
#340 = DIRECTION ( 'NONE',  ( -1.000000000000000000, 0.000000000000000000, 1.217349807703022362E-16 ) ) ;
#341 = DIRECTION ( 'NONE',  ( -1.000000000000000000, 0.000000000000000000, 1.176083712526648949E-16 ) ) ;
#342 = ORIENTED_EDGE ( 'NONE', *, *, #1144, .T. ) ;
#343 = FACE_OUTER_BOUND ( 'NONE', #1291, .T. ) ;
#344 = CARTESIAN_POINT ( 'NONE',  ( 10.81079949051929745, 0.000000000000000000, -2.718652888821843305 ) ) ;
#345 = LINE ( 'NONE', #851, #920 ) ;
#346 = VECTOR ( 'NONE', #994, 100.0000000000000000 ) ;
#347 = ORIENTED_EDGE ( 'NONE', *, *, #1198, .F. ) ;
#348 = VECTOR ( 'NONE', #1146, 100.0000000000000000 ) ;
#349 = LINE ( 'NONE', #373, #151 ) ;
#350 = CARTESIAN_POINT ( 'NONE',  ( 6.400386181927894214, 1.000000000000000000, 3.911347111178156588 ) ) ;
#351 = DIRECTION ( 'NONE',  ( -2.168404344971010347E-16, 0.000000000000000000, 1.000000000000000000 ) ) ;
#352 = EDGE_CURVE ( 'NONE', #1037, #967, #950, .T. ) ;
#353 = PRODUCT_RELATED_PRODUCT_CATEGORY ( 'part', '', ( #411 ) ) ;
#354 = ORIENTED_EDGE ( 'NONE', *, *, #35, .T. ) ;
#355 = CARTESIAN_POINT ( 'NONE',  ( 6.400386181927894214, 0.000000000000000000, -2.718652888821843305 ) ) ;
#356 = ORIENTED_EDGE ( 'NONE', *, *, #743, .F. ) ;
#357 = DIRECTION ( 'NONE',  ( -2.168404344971010347E-16, 0.000000000000000000, 1.000000000000000000 ) ) ;
#358 = CARTESIAN_POINT ( 'NONE',  ( 6.100386181927894391, 0.3000000000000000999, 3.611347111178158542 ) ) ;
#359 = DIRECTION ( 'NONE',  ( 1.000000000000000000, -0.000000000000000000, -1.176083712526648949E-16 ) ) ;
#360 = EDGE_LOOP ( 'NONE', ( #59, #723, #662, #1103 ) ) ;
#361 = DIRECTION ( 'NONE',  ( -1.000000000000000000, 0.000000000000000000, 1.176083712526648949E-16 ) ) ;
#362 = EDGE_CURVE ( 'NONE', #763, #741, #831, .T. ) ;
#363 = ORIENTED_EDGE ( 'NONE', *, *, #13, .T. ) ;
#364 = VECTOR ( 'NONE', #79, 100.0000000000000000 ) ;
#365 = PLANE ( 'NONE',  #598 ) ;
#366 = CARTESIAN_POINT ( 'NONE',  ( 10.81079949051929745, 1.000000000000000000, 3.911347111178156588 ) ) ;
#367 = VECTOR ( 'NONE', #650, 100.0000000000000000 ) ;
#368 = CARTESIAN_POINT ( 'NONE',  ( 0.000000000000000000, 0.000000000000000000, 0.000000000000000000 ) ) ;
#369 = VERTEX_POINT ( 'NONE', #926 ) ;
#370 = CARTESIAN_POINT ( 'NONE',  ( 10.51079949051929674, 1.000001200000000035, 3.611347111178158542 ) ) ;
#371 = ORIENTED_EDGE ( 'NONE', *, *, #821, .T. ) ;
#372 = EDGE_CURVE ( 'NONE', #753, #606, #455, .T. ) ;
#373 = CARTESIAN_POINT ( 'NONE',  ( 10.51079949051929674, 0.3000000000000000999, 3.611347111178158542 ) ) ;
#374 = EDGE_CURVE ( 'NONE', #997, #1027, #1209, .T. ) ;
#375 = CARTESIAN_POINT ( 'NONE',  ( 9.810799490519297450, -3.000000000000000000, -2.718652888821843305 ) ) ;
#376 = STYLED_ITEM ( 'NONE', ( #1095 ), #209 ) ;
#377 = PLANE ( 'NONE',  #1245 ) ;
#378 = ORIENTED_EDGE ( 'NONE', *, *, #244, .F. ) ;
#379 = DIRECTION ( 'NONE',  ( 1.000000000000000000, 0.000000000000000000, -1.217349807703022362E-16 ) ) ;
#380 = ADVANCED_FACE ( 'NONE', ( #823 ), #226, .F. ) ;
#381 = ORIENTED_EDGE ( 'NONE', *, *, #852, .T. ) ;
#382 = PLANE ( 'NONE',  #661 ) ;
#383 = CARTESIAN_POINT ( 'NONE',  ( 4.900386181927895102, 0.3000000000000000999, -2.418652888821833269 ) ) ;
#384 = DIRECTION ( 'NONE',  ( 1.046590332414362864E-16, 0.000000000000000000, -1.000000000000000000 ) ) ;
#385 = VECTOR ( 'NONE', #175, 100.0000000000000000 ) ;
#386 = VECTOR ( 'NONE', #38, 100.0000000000000000 ) ;
#387 = CARTESIAN_POINT ( 'NONE',  ( 6.700386181927894924, -2.700000000000000178, 0.2113471111781589640 ) ) ;
#388 = VERTEX_POINT ( 'NONE', #218 ) ;
#389 =( NAMED_UNIT ( * ) SI_UNIT ( $, .STERADIAN. ) SOLID_ANGLE_UNIT ( ) );
#390 = VERTEX_POINT ( 'NONE', #631 ) ;
#391 = LINE ( 'NONE', #1180, #228 ) ;
#392 = DIRECTION ( 'NONE',  ( 0.000000000000000000, 1.000000000000000000, 0.000000000000000000 ) ) ;
#393 = PLANE ( 'NONE',  #128 ) ;
#394 = ORIENTED_EDGE ( 'NONE', *, *, #471, .F. ) ;
#395 = ORIENTED_EDGE ( 'NONE', *, *, #506, .T. ) ;
#396 = CARTESIAN_POINT ( 'NONE',  ( 11.11079949051929816, -3.000000000000000000, 1.011347111178159119 ) ) ;
#397 = VERTEX_POINT ( 'NONE', #366 ) ;
#398 = FACE_OUTER_BOUND ( 'NONE', #719, .T. ) ;
#399 = AXIS2_PLACEMENT_3D ( 'NONE', #454, #443, #630 ) ;
#400 = FACE_OUTER_BOUND ( 'NONE', #734, .T. ) ;
#401 = ORIENTED_EDGE ( 'NONE', *, *, #690, .F. ) ;
#402 = AXIS2_PLACEMENT_3D ( 'NONE', #1058, #751, #452 ) ;
#403 = DIRECTION ( 'NONE',  ( 0.000000000000000000, -0.000000000000000000, 1.000000000000000000 ) ) ;
#404 = ORIENTED_EDGE ( 'NONE', *, *, #310, .F. ) ;
#405 = VECTOR ( 'NONE', #1156, 100.0000000000000000 ) ;
#406 = LINE ( 'NONE', #1089, #714 ) ;
#407 = ORIENTED_EDGE ( 'NONE', *, *, #783, .T. ) ;
#408 = EDGE_CURVE ( 'NONE', #185, #895, #1164, .T. ) ;
#409 = CARTESIAN_POINT ( 'NONE',  ( 10.31079949051929923, -3.000000000000000000, 3.911347111178158809 ) ) ;
#410 = ORIENTED_EDGE ( 'NONE', *, *, #918, .F. ) ;
#411 = PRODUCT ( 'battery holder', 'battery holder', '', ( #791 ) ) ;
#412 = DIRECTION ( 'NONE',  ( 0.000000000000000000, 1.000000000000000000, 0.000000000000000000 ) ) ;
#413 = AXIS2_PLACEMENT_3D ( 'NONE', #276, #1015, #18 ) ;
#414 = EDGE_LOOP ( 'NONE', ( #1197, #674, #132, #961, #853, #307, #401, #910 ) ) ;
#415 = DIRECTION ( 'NONE',  ( -1.046590332414362864E-16, -0.000000000000000000, 1.000000000000000000 ) ) ;
#416 = EDGE_CURVE ( 'NONE', #615, #767, #889, .T. ) ;
#417 = CARTESIAN_POINT ( 'NONE',  ( 5.900386181927895102, -2.700000000000000178, 0.2113471111781589085 ) ) ;
#418 = EDGE_CURVE ( 'NONE', #369, #1130, #1279, .T. ) ;
#419 = LINE ( 'NONE', #612, #98 ) ;
#420 = EDGE_CURVE ( 'NONE', #970, #585, #80, .T. ) ;
#421 = ORIENTED_EDGE ( 'NONE', *, *, #372, .T. ) ;
#422 = ORIENTED_EDGE ( 'NONE', *, *, #1229, .T. ) ;
#423 = CARTESIAN_POINT ( 'NONE',  ( 10.51079949051929674, 0.3000000000000000999, -2.418652888821833269 ) ) ;
#424 = FACE_OUTER_BOUND ( 'NONE', #1122, .T. ) ;
#425 = DIRECTION ( 'NONE',  ( -0.000000000000000000, 1.000000000000000000, -0.000000000000000000 ) ) ;
#426 = VECTOR ( 'NONE', #63, 100.0000000000000000 ) ;
#427 = CARTESIAN_POINT ( 'NONE',  ( 6.304603267649733667, -2.700000000000000178, 0.8015328371577489230 ) ) ;
#428 = PLANE ( 'NONE',  #611 ) ;
#429 = ORIENTED_EDGE ( 'NONE', *, *, #416, .T. ) ;
#430 = PLANE ( 'NONE',  #702 ) ;
#431 = PLANE ( 'NONE',  #1007 ) ;
#432 = VECTOR ( 'NONE', #866, 100.0000000000000000 ) ;
#433 = ORIENTED_EDGE ( 'NONE', *, *, #78, .T. ) ;
#434 = AXIS2_PLACEMENT_3D ( 'NONE', #126, #937, #547 ) ;
#435 = PLANE ( 'NONE',  #1158 ) ;
#436 = VERTEX_POINT ( 'NONE', #489 ) ;
#437 = CARTESIAN_POINT ( 'NONE',  ( 9.810799490519297450, -3.000000000000000000, 3.911347111178159253 ) ) ;
#438 = CARTESIAN_POINT ( 'NONE',  ( 5.900386181927895102, -3.000000000000000000, 1.011347111178158897 ) ) ;
#439 = ORIENTED_EDGE ( 'NONE', *, *, #782, .T. ) ;
#440 = ORIENTED_EDGE ( 'NONE', *, *, #746, .T. ) ;
#441 = CARTESIAN_POINT ( 'NONE',  ( 5.900386181927895102, -3.000000000000000000, 3.911347111178158809 ) ) ;
#442 = ORIENTED_EDGE ( 'NONE', *, *, #13, .F. ) ;
#443 = DIRECTION ( 'NONE',  ( 0.000000000000000000, -1.000000000000000000, 0.000000000000000000 ) ) ;
#444 = LINE ( 'NONE', #843, #1008 ) ;
#445 = DIRECTION ( 'NONE',  ( -1.000000000000000000, 0.000000000000000000, 1.217349807703022362E-16 ) ) ;
#446 = VECTOR ( 'NONE', #211, 100.0000000000000000 ) ;
#447 = VECTOR ( 'NONE', #93, 100.0000000000000000 ) ;
#448 = CARTESIAN_POINT ( 'NONE',  ( 11.11079949051929816, -3.000000000000000000, 1.011347111178159119 ) ) ;
#449 = ORIENTED_EDGE ( 'NONE', *, *, #974, .F. ) ;
#450 = CARTESIAN_POINT ( 'NONE',  ( 5.900386181927895102, -2.700000000000000178, 0.2113471111781589085 ) ) ;
#451 = LINE ( 'NONE', #637, #947 ) ;
#452 = DIRECTION ( 'NONE',  ( 0.000000000000000000, 0.000000000000000000, -1.000000000000000000 ) ) ;
#453 = ORIENTED_EDGE ( 'NONE', *, *, #26, .F. ) ;
#454 = CARTESIAN_POINT ( 'NONE',  ( 10.71501657624113690, -2.700000000000000178, 0.6021165831146435554 ) ) ;
#455 = LINE ( 'NONE', #1125, #42 ) ;
#456 = EDGE_CURVE ( 'NONE', #938, #28, #250, .T. ) ;
#457 = DIRECTION ( 'NONE',  ( 0.000000000000000000, -1.000000000000000000, 0.000000000000000000 ) ) ;
#458 = EDGE_CURVE ( 'NONE', #1230, #532, #172, .T. ) ;
#459 = FACE_OUTER_BOUND ( 'NONE', #625, .T. ) ;
#460 = VECTOR ( 'NONE', #542, 100.0000000000000000 ) ;
#461 = VERTEX_POINT ( 'NONE', #669 ) ;
#462 = CARTESIAN_POINT ( 'NONE',  ( 6.700386181927894924, -2.700000000000000178, 1.011347111178159119 ) ) ;
#463 = CARTESIAN_POINT ( 'NONE',  ( 6.400386181927894214, 0.000000000000000000, 3.911347111178156588 ) ) ;
#464 = VECTOR ( 'NONE', #156, 100.0000000000000000 ) ;
#465 = EDGE_LOOP ( 'NONE', ( #1182, #168, #315, #1078, #195, #277, #263, #903 ) ) ;
#466 = LINE ( 'NONE', #1256, #629 ) ;
#467 = VERTEX_POINT ( 'NONE', #978 ) ;
#468 = PLANE ( 'NONE',  #931 ) ;
#469 = VERTEX_POINT ( 'NONE', #481 ) ;
#470 = CARTESIAN_POINT ( 'NONE',  ( 6.100386181927894391, 1.000000000000000000, 0.000000000000000000 ) ) ;
#471 = EDGE_CURVE ( 'NONE', #1027, #777, #880, .T. ) ;
#472 = VERTEX_POINT ( 'NONE', #383 ) ;
#473 = EDGE_CURVE ( 'NONE', #436, #1036, #1211, .T. ) ;
#474 = FACE_OUTER_BOUND ( 'NONE', #507, .T. ) ;
#475 = VECTOR ( 'NONE', #1141, 100.0000000000000000 ) ;
#476 = CARTESIAN_POINT ( 'NONE',  ( 4.410413308591403236, 1.000000000000000000, 0.000000000000000000 ) ) ;
#477 = DIRECTION ( 'NONE',  ( 0.000000000000000000, -0.000000000000000000, -1.000000000000000000 ) ) ;
#478 = ORIENTED_EDGE ( 'NONE', *, *, #783, .F. ) ;
#479 = EDGE_LOOP ( 'NONE', ( #155, #1059, #667, #1287 ) ) ;
#480 = DIRECTION ( 'NONE',  ( 0.000000000000000000, 0.000000000000000000, -1.000000000000000000 ) ) ;
#481 = CARTESIAN_POINT ( 'NONE',  ( 5.900386181927895102, -2.700000000000000178, 1.011347111178158897 ) ) ;
#482 = FACE_OUTER_BOUND ( 'NONE', #1257, .T. ) ;
#483 = PRESENTATION_STYLE_ASSIGNMENT (( #1284 ) ) ;
#484 = ORIENTED_EDGE ( 'NONE', *, *, #313, .F. ) ;
#485 = EDGE_CURVE ( 'NONE', #317, #1036, #1228, .T. ) ;
#486 = PLANE ( 'NONE',  #510 ) ;
#487 = VERTEX_POINT ( 'NONE', #316 ) ;
#488 = CARTESIAN_POINT ( 'NONE',  ( 6.100386181927894391, 0.3000000000000000999, -2.418652888821833269 ) ) ;
#489 = CARTESIAN_POINT ( 'NONE',  ( 4.900386181927895102, 1.000000000000000222, -2.718652888821842861 ) ) ;
#490 = AXIS2_PLACEMENT_3D ( 'NONE', #1102, #909, #1216 ) ;
#491 = CARTESIAN_POINT ( 'NONE',  ( 6.700386181927894924, -2.700000000000000178, 0.2113471111781589640 ) ) ;
#492 = EDGE_LOOP ( 'NONE', ( #1072, #665, #440, #1174 ) ) ;
#493 = LINE ( 'NONE', #893, #273 ) ;
#494 = VERTEX_POINT ( 'NONE', #229 ) ;
#495 = CARTESIAN_POINT ( 'NONE',  ( 9.310799490519297450, 0.000000000000000000, -2.718652888821842861 ) ) ;
#496 = AXIS2_PLACEMENT_3D ( 'NONE', #1080, #668, #480 ) ;
#497 = EDGE_CURVE ( 'NONE', #487, #23, #324, .T. ) ;
#498 = CARTESIAN_POINT ( 'NONE',  ( 5.400386181927895102, 0.000000000000000000, 3.911347111178159253 ) ) ;
#499 = EDGE_CURVE ( 'NONE', #469, #1212, #740, .T. ) ;
#500 = DIRECTION ( 'NONE',  ( -1.000000000000000000, 0.000000000000000000, -5.421010862427525868E-17 ) ) ;
#501 = DIRECTION ( 'NONE',  ( 1.000000000000000000, 0.000000000000000000, 1.046590332414362988E-16 ) ) ;
#502 = ORIENTED_EDGE ( 'NONE', *, *, #372, .F. ) ;
#503 = DIRECTION ( 'NONE',  ( -1.000000000000000000, 0.000000000000000000, -2.168404344971010347E-16 ) ) ;
#504 = EDGE_CURVE ( 'NONE', #1212, #997, #540, .T. ) ;
#505 = LINE ( 'NONE', #1290, #820 ) ;
#506 = EDGE_CURVE ( 'NONE', #807, #1170, #1200, .T. ) ;
#507 = EDGE_LOOP ( 'NONE', ( #1064, #325, #1268, #556 ) ) ;
#508 = VECTOR ( 'NONE', #1272, 100.0000000000000000 ) ;
#509 = CARTESIAN_POINT ( 'NONE',  ( 10.31079949051929923, -3.000000000000000000, 3.911347111178158809 ) ) ;
#510 = AXIS2_PLACEMENT_3D ( 'NONE', #884, #1276, #1178 ) ;
#511 = VECTOR ( 'NONE', #457, 100.0000000000000000 ) ;
#512 = CARTESIAN_POINT ( 'NONE',  ( 11.11079949051929816, -2.700000000000000178, 0.2113471111781589640 ) ) ;
#513 = ORIENTED_EDGE ( 'NONE', *, *, #934, .T. ) ;
#514 = EDGE_CURVE ( 'NONE', #467, #494, #840, .T. ) ;
#515 = CARTESIAN_POINT ( 'NONE',  ( 10.31079949051929923, -2.700000000000000178, 1.011347111178158897 ) ) ;
#516 = ORIENTED_EDGE ( 'NONE', *, *, #852, .F. ) ;
#517 = CARTESIAN_POINT ( 'NONE',  ( 10.71501657624113690, -2.700000000000000178, 0.6021165831146435554 ) ) ;
#518 = EDGE_CURVE ( 'NONE', #615, #390, #236, .T. ) ;
#519 = CARTESIAN_POINT ( 'NONE',  ( 6.700386181927894924, -3.000000000000000000, 1.011347111178159119 ) ) ;
#520 = ORIENTED_EDGE ( 'NONE', *, *, #1238, .T. ) ;
#521 = MECHANICAL_DESIGN_GEOMETRIC_PRESENTATION_REPRESENTATION (  '', ( #376 ), #553 ) ;
#522 = DIRECTION ( 'NONE',  ( 0.000000000000000000, 1.000000000000000000, 0.000000000000000000 ) ) ;
#523 = DIRECTION ( 'NONE',  ( -0.000000000000000000, -0.000000000000000000, -1.000000000000000000 ) ) ;
#524 = DIRECTION ( 'NONE',  ( 1.046590332414362864E-16, 0.000000000000000000, -1.000000000000000000 ) ) ;
#525 = PRESENTATION_LAYER_ASSIGNMENT (  '', '', ( #1085 ) ) ;
#526 = LINE ( 'NONE', #203, #446 ) ;
#527 = EDGE_LOOP ( 'NONE', ( #541, #356, #963, #354 ) ) ;
#528 = EDGE_LOOP ( 'NONE', ( #828, #1145, #268, #295 ) ) ;
#529 = LINE ( 'NONE', #1040, #1260 ) ;
#530 = DIRECTION ( 'NONE',  ( -0.000000000000000000, -1.000000000000000000, -0.000000000000000000 ) ) ;
#531 = VECTOR ( 'NONE', #384, 100.0000000000000000 ) ;
#532 = VERTEX_POINT ( 'NONE', #119 ) ;
#533 = FACE_OUTER_BOUND ( 'NONE', #1014, .T. ) ;
#534 = ORIENTED_EDGE ( 'NONE', *, *, #555, .T. ) ;
#535 = CARTESIAN_POINT ( 'NONE',  ( 9.310799490519297450, 1.000000000000000000, -5.128696803102667327E-16 ) ) ;
#536 = FACE_OUTER_BOUND ( 'NONE', #1285, .T. ) ;
#537 = AXIS2_PLACEMENT_3D ( 'NONE', #1074, #772, #872 ) ;
#538 = ORIENTED_EDGE ( 'NONE', *, *, #626, .F. ) ;
#539 = VECTOR ( 'NONE', #1075, 100.0000000000000000 ) ;
#540 = LINE ( 'NONE', #441, #475 ) ;
#541 = ORIENTED_EDGE ( 'NONE', *, *, #305, .F. ) ;
#542 = DIRECTION ( 'NONE',  ( -1.046590332414362864E-16, -0.000000000000000000, 1.000000000000000000 ) ) ;
#543 = CARTESIAN_POINT ( 'NONE',  ( 5.900386181927895102, -3.000000000000000000, -2.718652888821843305 ) ) ;
#544 = EDGE_CURVE ( 'NONE', #397, #487, #1045, .T. ) ;
#545 = ORIENTED_EDGE ( 'NONE', *, *, #244, .T. ) ;
#546 = DIRECTION ( 'NONE',  ( -1.217349807703022362E-16, 0.000000000000000000, -1.000000000000000000 ) ) ;
#547 = DIRECTION ( 'NONE',  ( -1.046590332414362988E-16, 0.000000000000000000, -1.000000000000000000 ) ) ;
#548 = EDGE_LOOP ( 'NONE', ( #641, #279, #95, #328 ) ) ;
#549 = LINE ( 'NONE', #450, #321 ) ;
#550 = DIRECTION ( 'NONE',  ( 0.000000000000000000, 0.000000000000000000, 1.000000000000000000 ) ) ;
#551 = ORIENTED_EDGE ( 'NONE', *, *, #253, .F. ) ;
#552 = DIRECTION ( 'NONE',  ( -1.046590332414362864E-16, -0.000000000000000000, 1.000000000000000000 ) ) ;
#553 =( GEOMETRIC_REPRESENTATION_CONTEXT ( 3 ) GLOBAL_UNCERTAINTY_ASSIGNED_CONTEXT ( ( #792 ) ) GLOBAL_UNIT_ASSIGNED_CONTEXT ( ( #193, #169, #389 ) ) REPRESENTATION_CONTEXT ( 'NONE', 'WORKASPACE' ) );
#554 = VECTOR ( 'NONE', #850, 100.0000000000000000 ) ;
#555 = EDGE_CURVE ( 'NONE', #763, #51, #627, .T. ) ;
#556 = ORIENTED_EDGE ( 'NONE', *, *, #555, .F. ) ;
#557 = APPLICATION_CONTEXT ( 'automotive_design' ) ;
#558 = ADVANCED_FACE ( 'NONE', ( #533 ), #928, .F. ) ;
#559 = LINE ( 'NONE', #238, #460 ) ;
#560 = FACE_OUTER_BOUND ( 'NONE', #1062, .T. ) ;
#561 = EDGE_CURVE ( 'NONE', #1079, #615, #216, .T. ) ;
#562 = ORIENTED_EDGE ( 'NONE', *, *, #1073, .T. ) ;
#563 = LINE ( 'NONE', #1153, #752 ) ;
#564 = ORIENTED_EDGE ( 'NONE', *, *, #1018, .F. ) ;
#565 = CARTESIAN_POINT ( 'NONE',  ( 10.31079949051929923, -2.700000000000000178, 1.011347111178158897 ) ) ;
#566 = CARTESIAN_POINT ( 'NONE',  ( 6.400386181927894214, 0.000000000000000000, 3.911347111178156588 ) ) ;
#567 = DIRECTION ( 'NONE',  ( -1.046590332414362864E-16, -0.000000000000000000, 1.000000000000000000 ) ) ;
#568 = ORIENTED_EDGE ( 'NONE', *, *, #980, .F. ) ;
#569 = LINE ( 'NONE', #962, #426 ) ;
#570 = ORIENTED_EDGE ( 'NONE', *, *, #1289, .F. ) ;
#571 = DIRECTION ( 'NONE',  ( 0.000000000000000000, -1.000000000000000000, 0.000000000000000000 ) ) ;
#572 = ORIENTED_EDGE ( 'NONE', *, *, #1016, .T. ) ;
#573 = PLANE ( 'NONE',  #758 ) ;
#574 = ORIENTED_EDGE ( 'NONE', *, *, #471, .T. ) ;
#575 = AXIS2_PLACEMENT_3D ( 'NONE', #509, #1099, #1196 ) ;
#576 = FACE_OUTER_BOUND ( 'NONE', #330, .T. ) ;
#577 = DIRECTION ( 'NONE',  ( 0.000000000000000000, -1.000000000000000000, 0.000000000000000000 ) ) ;
#578 = ORIENTED_EDGE ( 'NONE', *, *, #167, .F. ) ;
#579 = DIRECTION ( 'NONE',  ( 0.000000000000000000, 1.000000000000000000, 0.000000000000000000 ) ) ;
#580 = DIRECTION ( 'NONE',  ( 0.000000000000000000, -1.000000000000000000, 0.000000000000000000 ) ) ;
#581 = ADVANCED_FACE ( 'NONE', ( #915, #30 ), #435, .F. ) ;
#582 = DIRECTION ( 'NONE',  ( -0.000000000000000000, 0.000000000000000000, 1.000000000000000000 ) ) ;
#583 = ORIENTED_EDGE ( 'NONE', *, *, #712, .F. ) ;
#584 = CARTESIAN_POINT ( 'NONE',  ( 4.410413308591403236, 1.000000000000000000, -2.418652888821832381 ) ) ;
#585 = VERTEX_POINT ( 'NONE', #448 ) ;
#586 = CARTESIAN_POINT ( 'NONE',  ( -2.944346629107617297E-16, 1.000000000000000000, -2.418652888821832381 ) ) ;
#587 = AXIS2_PLACEMENT_3D ( 'NONE', #240, #546, #340 ) ;
#588 = FACE_OUTER_BOUND ( 'NONE', #1019, .T. ) ;
#589 = EDGE_LOOP ( 'NONE', ( #235, #1225, #1001, #220 ) ) ;
#590 = DIRECTION ( 'NONE',  ( -1.046590332414362988E-16, 0.000000000000000000, -1.000000000000000000 ) ) ;
#591 = VERTEX_POINT ( 'NONE', #1222 ) ;
#592 = PRODUCT_DEFINITION ( 'UNKNOWN', '', #805, #898 ) ;
#593 = FACE_OUTER_BOUND ( 'NONE', #31, .T. ) ;
#594 = UNCERTAINTY_MEASURE_WITH_UNIT (LENGTH_MEASURE( 1.000000000000000082E-05 ), #1190, 'distance_accuracy_value', 'NONE');
#595 = FACE_BOUND ( 'NONE', #731, .T. ) ;
#596 = ORIENTED_EDGE ( 'NONE', *, *, #1198, .T. ) ;
#597 = LINE ( 'NONE', #998, #336 ) ;
#598 = AXIS2_PLACEMENT_3D ( 'NONE', #164, #658, #888 ) ;
#599 = VECTOR ( 'NONE', #1031, 100.0000000000000000 ) ;
#600 = ORIENTED_EDGE ( 'NONE', *, *, #181, .T. ) ;
#601 = PLANE ( 'NONE',  #1 ) ;
#602 = VECTOR ( 'NONE', #802, 100.0000000000000000 ) ;
#603 = ADVANCED_FACE ( 'NONE', ( #732 ), #1129, .F. ) ;
#604 = PLANE ( 'NONE',  #1231 ) ;
#605 = ADVANCED_FACE ( 'NONE', ( #588 ), #393, .T. ) ;
#606 = VERTEX_POINT ( 'NONE', #1208 ) ;
#607 = CARTESIAN_POINT ( 'NONE',  ( 6.700386181927894924, -2.700000000000000178, 0.2113471111781589640 ) ) ;
#608 = ORIENTED_EDGE ( 'NONE', *, *, #310, .T. ) ;
#609 = ADVANCED_FACE ( 'NONE', ( #1176 ), #1169, .F. ) ;
#610 = VECTOR ( 'NONE', #730, 100.0000000000000000 ) ;
#611 = AXIS2_PLACEMENT_3D ( 'NONE', #826, #323, #1218 ) ;
#612 = CARTESIAN_POINT ( 'NONE',  ( 11.11079949051929816, -2.700000000000000178, 0.2113471111781589640 ) ) ;
#613 = DIRECTION ( 'NONE',  ( -1.046590332414362988E-16, 0.000000000000000000, -1.000000000000000000 ) ) ;
#614 = CARTESIAN_POINT ( 'NONE',  ( 4.900386181927895102, 0.000000000000000000, -2.718652888821842861 ) ) ;
#615 = VERTEX_POINT ( 'NONE', #882 ) ;
#616 = PLANE ( 'NONE',  #109 ) ;
#617 = EDGE_CURVE ( 'NONE', #397, #532, #774, .T. ) ;
#618 = CARTESIAN_POINT ( 'NONE',  ( 9.310799490519297450, 1.000000000000000000, -2.418652888821833269 ) ) ;
#619 = ORIENTED_EDGE ( 'NONE', *, *, #811, .T. ) ;
#620 = CARTESIAN_POINT ( 'NONE',  ( 0.000000000000000000, -2.700000000000000178, 0.000000000000000000 ) ) ;
#621 = ORIENTED_EDGE ( 'NONE', *, *, #167, .T. ) ;
#622 = DIRECTION ( 'NONE',  ( 0.000000000000000000, -1.000000000000000000, 0.000000000000000000 ) ) ;
#623 = AXIS2_PLACEMENT_3D ( 'NONE', #1124, #129, #728 ) ;
#624 = FACE_OUTER_BOUND ( 'NONE', #1043, .T. ) ;
#625 = EDGE_LOOP ( 'NONE', ( #538, #347, #1025, #883 ) ) ;
#626 = EDGE_CURVE ( 'NONE', #472, #174, #988, .T. ) ;
#627 = LINE ( 'NONE', #1116, #975 ) ;
#628 = ORIENTED_EDGE ( 'NONE', *, *, #636, .F. ) ;
#629 = VECTOR ( 'NONE', #552, 100.0000000000000000 ) ;
#630 = DIRECTION ( 'NONE',  ( 0.000000000000000000, 0.000000000000000000, -1.000000000000000000 ) ) ;
#631 = CARTESIAN_POINT ( 'NONE',  ( 11.11079949051929816, -2.700000000000000178, 0.2113471111781589640 ) ) ;
#632 = AXIS2_PLACEMENT_3D ( 'NONE', #856, #737, #159 ) ;
#633 = ORIENTED_EDGE ( 'NONE', *, *, #123, .T. ) ;
#634 = VERTEX_POINT ( 'NONE', #1077 ) ;
#635 = DIRECTION ( 'NONE',  ( -1.046590332414362988E-16, 0.000000000000000000, -1.000000000000000000 ) ) ;
#636 = EDGE_CURVE ( 'NONE', #741, #1092, #793, .T. ) ;
#637 = CARTESIAN_POINT ( 'NONE',  ( 10.81079949051929745, 1.000000000000000000, 3.911347111178156588 ) ) ;
#638 = LINE ( 'NONE', #709, #183 ) ;
#639 = AXIS2_PLACEMENT_3D ( 'NONE', #83, #695, #874 ) ;
#640 = DIRECTION ( 'NONE',  ( 0.000000000000000000, 0.000000000000000000, -1.000000000000000000 ) ) ;
#641 = ORIENTED_EDGE ( 'NONE', *, *, #646, .F. ) ;
#642 = CARTESIAN_POINT ( 'NONE',  ( 4.900386181927895990, 3.000000000000000000, 3.911347111178159253 ) ) ;
#643 = FACE_BOUND ( 'NONE', #697, .T. ) ;
#644 = MANIFOLD_SOLID_BREP ( 'Boss-Extrude3[2]', #1248 ) ;
#645 = ADVANCED_BREP_SHAPE_REPRESENTATION ( 'battery holder', ( #644, #209, #166 ), #863 ) ;
#646 = EDGE_CURVE ( 'NONE', #469, #759, #784, .T. ) ;
#647 = ORIENTED_EDGE ( 'NONE', *, *, #1112, .T. ) ;
#648 = CARTESIAN_POINT ( 'NONE',  ( 10.31079949051929923, -3.000000000000000000, 3.911347111178158809 ) ) ;
#649 = ADVANCED_FACE ( 'NONE', ( #283 ), #685, .T. ) ;
#650 = DIRECTION ( 'NONE',  ( 1.000000000000000000, -0.000000000000000000, 5.421010862427525868E-17 ) ) ;
#651 = VERTEX_POINT ( 'NONE', #387 ) ;
#652 = LINE ( 'NONE', #535, #857 ) ;
#653 = EDGE_CURVE ( 'NONE', #634, #938, #1068, .T. ) ;
#654 = LINE ( 'NONE', #463, #3 ) ;
#655 = ADVANCED_FACE ( 'NONE', ( #184, #595 ), #616, .T. ) ;
#656 = CARTESIAN_POINT ( 'NONE',  ( 5.900386181927895102, -3.000000000000000000, 0.2113471111781589085 ) ) ;
#657 = ORIENTED_EDGE ( 'NONE', *, *, #1240, .T. ) ;
#658 = DIRECTION ( 'NONE',  ( 1.217349807703022362E-16, 0.000000000000000000, 1.000000000000000000 ) ) ;
#659 = LINE ( 'NONE', #1224, #99 ) ;
#660 = FACE_OUTER_BOUND ( 'NONE', #492, .T. ) ;
#661 = AXIS2_PLACEMENT_3D ( 'NONE', #462, #357, #985 ) ;
#662 = ORIENTED_EDGE ( 'NONE', *, *, #918, .T. ) ;
#663 = DIRECTION ( 'NONE',  ( 0.000000000000000000, 0.000000000000000000, -1.000000000000000000 ) ) ;
#664 = LINE ( 'NONE', #251, #845 ) ;
#665 = ORIENTED_EDGE ( 'NONE', *, *, #305, .T. ) ;
#666 = CARTESIAN_POINT ( 'NONE',  ( 10.51079949051929674, 1.000000000000000000, 3.611347111178158542 ) ) ;
#667 = ORIENTED_EDGE ( 'NONE', *, *, #653, .F. ) ;
#668 = DIRECTION ( 'NONE',  ( 0.000000000000000000, -1.000000000000000000, 0.000000000000000000 ) ) ;
#669 = CARTESIAN_POINT ( 'NONE',  ( 10.51079949051929674, 0.3000000000000000999, 3.611347111178158542 ) ) ;
#670 = PLANE ( 'NONE',  #333 ) ;
#671 = CIRCLE ( 'NONE', #676, 0.1994162540431053954 ) ;
#672 = ORIENTED_EDGE ( 'NONE', *, *, #418, .F. ) ;
#673 = DIRECTION ( 'NONE',  ( 0.000000000000000000, 0.000000000000000000, 1.000000000000000000 ) ) ;
#674 = ORIENTED_EDGE ( 'NONE', *, *, #473, .F. ) ;
#675 = VECTOR ( 'NONE', #1204, 100.0000000000000000 ) ;
#676 = AXIS2_PLACEMENT_3D ( 'NONE', #1013, #88, #1006 ) ;
#677 = DIRECTION ( 'NONE',  ( 0.000000000000000000, 1.000000000000000000, 0.000000000000000000 ) ) ;
#678 = ADVANCED_FACE ( 'NONE', ( #1267 ), #377, .T. ) ;
#679 = DIRECTION ( 'NONE',  ( -0.000000000000000000, -1.000000000000000000, -0.000000000000000000 ) ) ;
#680 = ORIENTED_EDGE ( 'NONE', *, *, #458, .F. ) ;
#681 = SURFACE_STYLE_USAGE ( .BOTH. , #696 ) ;
#682 = ORIENTED_EDGE ( 'NONE', *, *, #157, .T. ) ;
#683 = FACE_OUTER_BOUND ( 'NONE', #187, .T. ) ;
#684 = ADVANCED_FACE ( 'NONE', ( #145 ), #1142, .F. ) ;
#685 = PLANE ( 'NONE',  #750 ) ;
#686 = EDGE_LOOP ( 'NONE', ( #513, #875, #200, #841 ) ) ;
#687 = DIRECTION ( 'NONE',  ( 1.000000000000000000, -0.000000000000000000, 5.421010862427525868E-17 ) ) ;
#688 = EDGE_CURVE ( 'NONE', #118, #767, #559, .T. ) ;
#689 = VERTEX_POINT ( 'NONE', #939 ) ;
#690 = EDGE_CURVE ( 'NONE', #222, #213, #326, .T. ) ;
#691 = VECTOR ( 'NONE', #523, 100.0000000000000000 ) ;
#692 = DIRECTION ( 'NONE',  ( -1.000000000000000000, 0.000000000000000000, 1.176083712526648949E-16 ) ) ;
#693 = VECTOR ( 'NONE', #757, 100.0000000000000000 ) ;
#694 = ADVANCED_FACE ( 'NONE', ( #742 ), #137, .F. ) ;
#695 = DIRECTION ( 'NONE',  ( -1.176083712526648949E-16, 0.000000000000000000, -1.000000000000000000 ) ) ;
#696 = SURFACE_SIDE_STYLE ('',( #806 ) ) ;
#697 = EDGE_LOOP ( 'NONE', ( #1255, #371 ) ) ;
#698 = DIRECTION ( 'NONE',  ( -0.000000000000000000, 1.000000000000000000, -0.000000000000000000 ) ) ;
#699 = CARTESIAN_POINT ( 'NONE',  ( 6.400386181927894214, 1.000000000000000000, -2.718652888821843305 ) ) ;
#700 = ORIENTED_EDGE ( 'NONE', *, *, #1203, .T. ) ;
#701 = CARTESIAN_POINT ( 'NONE',  ( 6.304603267649733667, -2.700000000000000178, 0.4027003290715381878 ) ) ;
#702 = AXIS2_PLACEMENT_3D ( 'NONE', #748, #677, #265 ) ;
#703 = ADVANCED_FACE ( 'NONE', ( #1232 ), #120, .T. ) ;
#704 = VECTOR ( 'NONE', #41, 100.0000000000000000 ) ;
#705 = FILL_AREA_STYLE_COLOUR ( '', #199 ) ;
#706 = ORIENTED_EDGE ( 'NONE', *, *, #1188, .F. ) ;
#707 = CARTESIAN_POINT ( 'NONE',  ( 0.000000000000000000, 0.3000000000000000999, 0.000000000000000000 ) ) ;
#708 = CARTESIAN_POINT ( 'NONE',  ( 10.71501657624113690, -3.000000000000000000, 0.4027003290715381878 ) ) ;
#709 = CARTESIAN_POINT ( 'NONE',  ( 9.310799490519297450, 1.000000000000000000, -5.128696803102667327E-16 ) ) ;
#710 = FACE_OUTER_BOUND ( 'NONE', #465, .T. ) ;
#711 = ORIENTED_EDGE ( 'NONE', *, *, #134, .F. ) ;
#712 = EDGE_CURVE ( 'NONE', #952, #689, #835, .T. ) ;
#713 = CARTESIAN_POINT ( 'NONE',  ( 6.400386181927894214, 1.000000000000000000, 3.911347111178156588 ) ) ;
#714 = VECTOR ( 'NONE', #94, 100.0000000000000000 ) ;
#715 = VECTOR ( 'NONE', #590, 100.0000000000000000 ) ;
#716 = DIRECTION ( 'NONE',  ( -1.000000000000000000, 0.000000000000000000, 0.000000000000000000 ) ) ;
#717 = ORIENTED_EDGE ( 'NONE', *, *, #1067, .F. ) ;
#718 = CARTESIAN_POINT ( 'NONE',  ( 10.81079949051929745, 1.000000000000000000, -2.718652888821843305 ) ) ;
#719 = EDGE_LOOP ( 'NONE', ( #936, #292, #206, #621, #442, #303, #534, #102 ) ) ;
#720 = DIRECTION ( 'NONE',  ( 0.000000000000000000, -1.000000000000000000, 0.000000000000000000 ) ) ;
#721 = VECTOR ( 'NONE', #571, 100.0000000000000000 ) ;
#722 = CARTESIAN_POINT ( 'NONE',  ( 10.81079949051929745, 1.000000000000000000, 3.911347111178156588 ) ) ;
#723 = ORIENTED_EDGE ( 'NONE', *, *, #420, .F. ) ;
#724 = EDGE_CURVE ( 'NONE', #591, #914, #652, .T. ) ;
#725 = FACE_OUTER_BOUND ( 'NONE', #924, .T. ) ;
#726 = DIRECTION ( 'NONE',  ( -0.000000000000000000, -1.000000000000000000, -0.000000000000000000 ) ) ;
#727 = ORIENTED_EDGE ( 'NONE', *, *, #458, .T. ) ;
#728 = DIRECTION ( 'NONE',  ( 0.000000000000000000, -0.000000000000000000, -1.000000000000000000 ) ) ;
#729 = VECTOR ( 'NONE', #24, 100.0000000000000000 ) ;
#730 = DIRECTION ( 'NONE',  ( 0.000000000000000000, -1.000000000000000000, 0.000000000000000000 ) ) ;
#731 = EDGE_LOOP ( 'NONE', ( #1194, #803 ) ) ;
#732 = FACE_OUTER_BOUND ( 'NONE', #865, .T. ) ;
#733 = ADVANCED_FACE ( 'NONE', ( #1033, #1028 ), #48, .T. ) ;
#734 = EDGE_LOOP ( 'NONE', ( #551, #381, #148, #1046 ) ) ;
#735 = AXIS2_PLACEMENT_3D ( 'NONE', #1094, #804, #191 ) ;
#736 = CARTESIAN_POINT ( 'NONE',  ( 6.700386181927894924, -2.700000000000000178, 1.011347111178159119 ) ) ;
#737 = DIRECTION ( 'NONE',  ( 0.000000000000000000, -1.000000000000000000, 0.000000000000000000 ) ) ;
#738 = VECTOR ( 'NONE', #89, 100.0000000000000000 ) ;
#739 = VERTEX_POINT ( 'NONE', #854 ) ;
#740 = LINE ( 'NONE', #113, #766 ) ;
#741 = VERTEX_POINT ( 'NONE', #37 ) ;
#742 = FACE_OUTER_BOUND ( 'NONE', #528, .T. ) ;
#743 = EDGE_CURVE ( 'NONE', #388, #1251, #219, .T. ) ;
#744 = CARTESIAN_POINT ( 'NONE',  ( 6.700386181927894924, -3.000000000000000000, 0.2113471111781589640 ) ) ;
#745 = LINE ( 'NONE', #252, #801 ) ;
#746 = EDGE_CURVE ( 'NONE', #255, #270, #125, .T. ) ;
#747 = CARTESIAN_POINT ( 'NONE',  ( 6.400386181927894214, 0.000000000000000000, -2.718652888821843305 ) ) ;
#748 = CARTESIAN_POINT ( 'NONE',  ( 4.410413308591403236, 0.000000000000000000, 0.000000000000000000 ) ) ;
#749 = LINE ( 'NONE', #332, #1254 ) ;
#750 = AXIS2_PLACEMENT_3D ( 'NONE', #819, #319, #582 ) ;
#751 = DIRECTION ( 'NONE',  ( 0.000000000000000000, -1.000000000000000000, 0.000000000000000000 ) ) ;
#752 = VECTOR ( 'NONE', #1050, 100.0000000000000000 ) ;
#753 = VERTEX_POINT ( 'NONE', #437 ) ;
#754 = LINE ( 'NONE', #1149, #1096 ) ;
#755 = LINE ( 'NONE', #1151, #405 ) ;
#756 = ORIENTED_EDGE ( 'NONE', *, *, #78, .F. ) ;
#757 = DIRECTION ( 'NONE',  ( 0.000000000000000000, 0.000000000000000000, -1.000000000000000000 ) ) ;
#758 = AXIS2_PLACEMENT_3D ( 'NONE', #969, #501, #1173 ) ;
#759 = VERTEX_POINT ( 'NONE', #1244 ) ;
#760 = CARTESIAN_POINT ( 'NONE',  ( 11.11079949051929816, -3.000000000000000000, 0.2113471111781589640 ) ) ;
#761 = DIRECTION ( 'NONE',  ( 1.046590332414362864E-16, 0.000000000000000000, -1.000000000000000000 ) ) ;
#762 = CARTESIAN_POINT ( 'NONE',  ( 9.810799490519297450, 0.000000000000000000, -2.718652888821843305 ) ) ;
#763 = VERTEX_POINT ( 'NONE', #1223 ) ;
#764 = DIRECTION ( 'NONE',  ( 1.217349807703022362E-16, 0.000000000000000000, 1.000000000000000000 ) ) ;
#765 = AXIS2_PLACEMENT_3D ( 'NONE', #33, #720, #930 ) ;
#766 = VECTOR ( 'NONE', #1038, 100.0000000000000000 ) ;
#767 = VERTEX_POINT ( 'NONE', #217 ) ;
#768 = DIRECTION ( 'NONE',  ( -1.000000000000000000, 0.000000000000000000, -0.000000000000000000 ) ) ;
#769 = ORIENTED_EDGE ( 'NONE', *, *, #688, .F. ) ;
#770 = CARTESIAN_POINT ( 'NONE',  ( 10.81079949051929745, 0.000000000000000000, -2.718652888821843305 ) ) ;
#771 = EDGE_CURVE ( 'NONE', #1165, #299, #529, .T. ) ;
#772 = DIRECTION ( 'NONE',  ( 0.000000000000000000, -1.000000000000000000, 0.000000000000000000 ) ) ;
#773 = DIRECTION ( 'NONE',  ( 1.000000000000000000, 0.000000000000000000, 0.000000000000000000 ) ) ;
#774 = LINE ( 'NONE', #814, #809 ) ;
#775 = ORIENTED_EDGE ( 'NONE', *, *, #1041, .T. ) ;
#776 = CARTESIAN_POINT ( 'NONE',  ( 5.400386181927895990, -3.000000000000000000, -2.718652888821843305 ) ) ;
#777 = VERTEX_POINT ( 'NONE', #331 ) ;
#778 = AXIS2_PLACEMENT_3D ( 'NONE', #722, #1119, #122 ) ;
#779 = VECTOR ( 'NONE', #415, 100.0000000000000000 ) ;
#780 = LINE ( 'NONE', #1175, #364 ) ;
#781 = DIRECTION ( 'NONE',  ( 1.000000000000000000, 0.000000000000000000, 0.000000000000000000 ) ) ;
#782 = EDGE_CURVE ( 'NONE', #288, #299, #944, .T. ) ;
#783 = EDGE_CURVE ( 'NONE', #174, #436, #1131, .T. ) ;
#784 = LINE ( 'NONE', #417, #691 ) ;
#785 = ORIENTED_EDGE ( 'NONE', *, *, #1100, .T. ) ;
#786 = FACE_OUTER_BOUND ( 'NONE', #414, .T. ) ;
#787 = ORIENTED_EDGE ( 'NONE', *, *, #690, .T. ) ;
#788 = EDGE_CURVE ( 'NONE', #759, #133, #549, .T. ) ;
#789 = FACE_OUTER_BOUND ( 'NONE', #247, .T. ) ;
#790 = ADVANCED_FACE ( 'NONE', ( #343 ), #430, .F. ) ;
#791 = PRODUCT_CONTEXT ( 'NONE', #817, 'mechanical' ) ;
#792 = UNCERTAINTY_MEASURE_WITH_UNIT (LENGTH_MEASURE( 1.000000000000000082E-05 ), #193, 'distance_accuracy_value', 'NONE');
#793 = LINE ( 'NONE', #423, #346 ) ;
#794 = EDGE_LOOP ( 'NONE', ( #242, #871, #502, #657 ) ) ;
#795 = LINE ( 'NONE', #904, #248 ) ;
#796 = ORIENTED_EDGE ( 'NONE', *, *, #212, .F. ) ;
#797 = AXIS2_PLACEMENT_3D ( 'NONE', #1047, #231, #829 ) ;
#798 = DIRECTION ( 'NONE',  ( -1.000000000000000000, 0.000000000000000000, -2.168404344971010347E-16 ) ) ;
#799 = ORIENTED_EDGE ( 'NONE', *, *, #35, .F. ) ;
#800 = CARTESIAN_POINT ( 'NONE',  ( 10.71501657624113690, -2.700000000000000178, 0.8015328371577489230 ) ) ;
#801 = VECTOR ( 'NONE', #262, 100.0000000000000000 ) ;
#802 = DIRECTION ( 'NONE',  ( -1.000000000000000000, 0.000000000000000000, 1.176083712526648949E-16 ) ) ;
#803 = ORIENTED_EDGE ( 'NONE', *, *, #506, .F. ) ;
#804 = DIRECTION ( 'NONE',  ( -1.000000000000000000, 0.000000000000000000, -1.046590332414362988E-16 ) ) ;
#805 = PRODUCT_DEFINITION_FORMATION_WITH_SPECIFIED_SOURCE ( 'ANY', '', #411, .NOT_KNOWN. ) ;
#806 = SURFACE_STYLE_FILL_AREA ( #293 ) ;
#807 = VERTEX_POINT ( 'NONE', #1053 ) ;
#808 = CARTESIAN_POINT ( 'NONE',  ( 6.400386181927894214, 1.000000000000000000, -2.718652888821843305 ) ) ;
#809 = VECTOR ( 'NONE', #679, 100.0000000000000000 ) ;
#810 = DIRECTION ( 'NONE',  ( 1.000000000000000000, 0.000000000000000000, -1.176083712526648949E-16 ) ) ;
#811 = EDGE_CURVE ( 'NONE', #997, #886, #281, .T. ) ;
#812 = ORIENTED_EDGE ( 'NONE', *, *, #782, .F. ) ;
#813 = FACE_OUTER_BOUND ( 'NONE', #848, .T. ) ;
#814 = CARTESIAN_POINT ( 'NONE',  ( 10.81079949051929745, 1.000000000000000000, 3.911347111178156588 ) ) ;
#815 = DIRECTION ( 'NONE',  ( 0.000000000000000000, -1.000000000000000000, 0.000000000000000000 ) ) ;
#816 = ORIENTED_EDGE ( 'NONE', *, *, #1067, .T. ) ;
#817 = APPLICATION_CONTEXT ( 'automotive_design' ) ;
#818 = ORIENTED_EDGE ( 'NONE', *, *, #408, .T. ) ;
#819 = CARTESIAN_POINT ( 'NONE',  ( 6.100386181927894391, 1.000001200000000035, 3.611347111178158542 ) ) ;
#820 = VECTOR ( 'NONE', #995, 100.0000000000000000 ) ;
#821 = EDGE_CURVE ( 'NONE', #1251, #388, #996, .T. ) ;
#822 = EDGE_CURVE ( 'NONE', #739, #185, #158, .T. ) ;
#823 = FACE_OUTER_BOUND ( 'NONE', #686, .T. ) ;
#824 = EDGE_CURVE ( 'NONE', #914, #877, #1252, .T. ) ;
#825 = ORIENTED_EDGE ( 'NONE', *, *, #499, .T. ) ;
#826 = CARTESIAN_POINT ( 'NONE',  ( 10.81079949051929745, 1.000000000000000000, 3.911347111178156588 ) ) ;
#827 = CARTESIAN_POINT ( 'NONE',  ( 4.900386181927895102, 3.000000000000000000, -2.718652888821842861 ) ) ;
#828 = ORIENTED_EDGE ( 'NONE', *, *, #1282, .T. ) ;
#829 = DIRECTION ( 'NONE',  ( 0.000000000000000000, -0.000000000000000000, 1.000000000000000000 ) ) ;
#830 = VECTOR ( 'NONE', #698, 100.0000000000000000 ) ;
#831 = LINE ( 'NONE', #1009, #610 ) ;
#832 = ORIENTED_EDGE ( 'NONE', *, *, #112, .F. ) ;
#833 = DIRECTION ( 'NONE',  ( 0.000000000000000000, -1.000000000000000000, 0.000000000000000000 ) ) ;
#834 = ORIENTED_EDGE ( 'NONE', *, *, #1016, .F. ) ;
#835 = LINE ( 'NONE', #642, #729 ) ;
#836 = DIRECTION ( 'NONE',  ( 1.000000000000000000, 0.000000000000000000, -1.046590332414362988E-16 ) ) ;
#837 = ORIENTED_EDGE ( 'NONE', *, *, #157, .F. ) ;
#838 = ORIENTED_EDGE ( 'NONE', *, *, #81, .T. ) ;
#839 = ADVANCED_FACE ( 'NONE', ( #576 ), #365, .T. ) ;
#840 = LINE ( 'NONE', #221, #599 ) ;
#841 = ORIENTED_EDGE ( 'NONE', *, *, #617, .T. ) ;
#842 = DIRECTION ( 'NONE',  ( -1.046590332414362988E-16, 0.000000000000000000, -1.000000000000000000 ) ) ;
#843 = CARTESIAN_POINT ( 'NONE',  ( 4.900386181927895102, 0.3000000000000000999, -5.128696803102667327E-16 ) ) ;
#844 = CIRCLE ( 'NONE', #490, 0.1994162540431053954 ) ;
#845 = VECTOR ( 'NONE', #567, 100.0000000000000000 ) ;
#846 = ADVANCED_FACE ( 'NONE', ( #683 ), #879, .T. ) ;
#847 = DIRECTION ( 'NONE',  ( 1.000000000000000000, -0.000000000000000000, -1.176083712526648949E-16 ) ) ;
#848 = EDGE_LOOP ( 'NONE', ( #334, #114, #177, #429, #769, #700, #927, #986 ) ) ;
#849 = DIRECTION ( 'NONE',  ( 0.000000000000000000, -1.000000000000000000, 0.000000000000000000 ) ) ;
#850 = DIRECTION ( 'NONE',  ( -0.000000000000000000, 1.000000000000000000, -0.000000000000000000 ) ) ;
#851 = CARTESIAN_POINT ( 'NONE',  ( 10.81079949051929745, 0.000000000000000000, 3.911347111178156588 ) ) ;
#852 = EDGE_CURVE ( 'NONE', #877, #461, #349, .T. ) ;
#853 = ORIENTED_EDGE ( 'NONE', *, *, #86, .T. ) ;
#854 = CARTESIAN_POINT ( 'NONE',  ( 4.900386181927895990, 0.3000000000000000999, 3.611347111178158542 ) ) ;
#855 = CARTESIAN_POINT ( 'NONE',  ( 5.900386181927895102, -3.000000000000000000, 3.911347111178158809 ) ) ;
#856 = CARTESIAN_POINT ( 'NONE',  ( 4.410413308591403236, -2.700000000000000178, 0.000000000000000000 ) ) ;
#857 = VECTOR ( 'NONE', #635, 100.0000000000000000 ) ;
#858 = DIRECTION ( 'NONE',  ( 1.046590332414362864E-16, 0.000000000000000000, 1.000000000000000000 ) ) ;
#859 = DIRECTION ( 'NONE',  ( -1.000000000000000000, -0.000000000000000000, 1.387778780781446464E-15 ) ) ;
#860 = CARTESIAN_POINT ( 'NONE',  ( 6.100386181927894391, 1.000000000000000000, -2.418652888821833269 ) ) ;
#861 = EDGE_CURVE ( 'NONE', #1079, #935, #1271, .T. ) ;
#862 = EDGE_LOOP ( 'NONE', ( #568, #1005, #143, #335 ) ) ;
#863 =( GEOMETRIC_REPRESENTATION_CONTEXT ( 3 ) GLOBAL_UNCERTAINTY_ASSIGNED_CONTEXT ( ( #594 ) ) GLOBAL_UNIT_ASSIGNED_CONTEXT ( ( #1190, #282, #1266 ) ) REPRESENTATION_CONTEXT ( 'NONE', 'WORKASPACE' ) );
#864 = FACE_OUTER_BOUND ( 'NONE', #862, .T. ) ;
#865 = EDGE_LOOP ( 'NONE', ( #449, #1161, #1083, #71, #230, #1136, #574, #322 ) ) ;
#866 = DIRECTION ( 'NONE',  ( 1.000000000000000000, -0.000000000000000000, -1.217349807703022116E-16 ) ) ;
#867 = CARTESIAN_POINT ( 'NONE',  ( 5.400386181927895102, 0.000000000000000000, 3.911347111178159253 ) ) ;
#868 = ORIENTED_EDGE ( 'NONE', *, *, #822, .T. ) ;
#869 = LINE ( 'NONE', #1250, #1023 ) ;
#870 = EDGE_CURVE ( 'NONE', #174, #1120, #955, .T. ) ;
#871 = ORIENTED_EDGE ( 'NONE', *, *, #5, .F. ) ;
#872 = DIRECTION ( 'NONE',  ( 0.000000000000000000, 0.000000000000000000, -1.000000000000000000 ) ) ;
#873 = CARTESIAN_POINT ( 'NONE',  ( 9.810799490519297450, 0.000000000000000000, 3.911347111178159253 ) ) ;
#874 = DIRECTION ( 'NONE',  ( -1.000000000000000000, 0.000000000000000000, 1.176083712526648949E-16 ) ) ;
#875 = ORIENTED_EDGE ( 'NONE', *, *, #497, .F. ) ;
#876 = CARTESIAN_POINT ( 'NONE',  ( 6.304603267649733667, -2.700000000000000178, 0.8015328371577489230 ) ) ;
#877 = VERTEX_POINT ( 'NONE', #60 ) ;
#878 = ADVANCED_FACE ( 'NONE', ( #474 ), #468, .T. ) ;
#879 = PLANE ( 'NONE',  #1157 ) ;
#880 = LINE ( 'NONE', #566, #1261 ) ;
#881 = LINE ( 'NONE', #1076, #508 ) ;
#882 = CARTESIAN_POINT ( 'NONE',  ( 10.31079949051929923, -2.700000000000000178, 0.2113471111781589085 ) ) ;
#883 = ORIENTED_EDGE ( 'NONE', *, *, #870, .F. ) ;
#884 = CARTESIAN_POINT ( 'NONE',  ( 6.400386181927894214, 1.000000000000000000, -2.718652888821843305 ) ) ;
#885 = ADVANCED_FACE ( 'NONE', ( #1265 ), #271, .F. ) ;
#886 = VERTEX_POINT ( 'NONE', #1167 ) ;
#887 = AXIS2_PLACEMENT_3D ( 'NONE', #1220, #117, #810 ) ;
#888 = DIRECTION ( 'NONE',  ( 1.000000000000000000, 0.000000000000000000, -1.217349807703022362E-16 ) ) ;
#889 = LINE ( 'NONE', #1150, #194 ) ;
#890 = DIRECTION ( 'NONE',  ( 0.000000000000000000, 0.000000000000000000, 1.000000000000000000 ) ) ;
#891 = SURFACE_SIDE_STYLE ('',( #107 ) ) ;
#892 = ORIENTED_EDGE ( 'NONE', *, *, #1289, .T. ) ;
#893 = CARTESIAN_POINT ( 'NONE',  ( 9.310799490519297450, 0.3000000000000000999, -5.128696803102667327E-16 ) ) ;
#894 = VECTOR ( 'NONE', #580, 100.0000000000000000 ) ;
#895 = VERTEX_POINT ( 'NONE', #488 ) ;
#896 = LINE ( 'NONE', #907, #1090 ) ;
#897 = ORIENTED_EDGE ( 'NONE', *, *, #1229, .F. ) ;
#898 = PRODUCT_DEFINITION_CONTEXT ( 'detailed design', #557, 'design' ) ;
#899 = DIRECTION ( 'NONE',  ( -0.000000000000000000, 1.000000000000000000, 0.000000000000000000 ) ) ;
#900 = LINE ( 'NONE', #699, #602 ) ;
#901 = ORIENTED_EDGE ( 'NONE', *, *, #473, .T. ) ;
#902 = CARTESIAN_POINT ( 'NONE',  ( 11.11079949051929816, -2.700000000000000178, 0.2113471111781589640 ) ) ;
#903 = ORIENTED_EDGE ( 'NONE', *, *, #374, .F. ) ;
#904 = CARTESIAN_POINT ( 'NONE',  ( 6.700386181927894924, -3.000000000000000000, 1.011347111178159119 ) ) ;
#905 = AXIS2_PLACEMENT_3D ( 'NONE', #1042, #34, #56 ) ;
#906 = ORIENTED_EDGE ( 'NONE', *, *, #1281, .T. ) ;
#907 = CARTESIAN_POINT ( 'NONE',  ( 6.304603267649733667, -2.700000000000000178, 0.4027003290715381878 ) ) ;
#908 = VECTOR ( 'NONE', #692, 100.0000000000000000 ) ;
#909 = DIRECTION ( 'NONE',  ( 0.000000000000000000, -1.000000000000000000, 0.000000000000000000 ) ) ;
#910 = ORIENTED_EDGE ( 'NONE', *, *, #215, .T. ) ;
#911 = ADVANCED_FACE ( 'NONE', ( #152 ), #382, .T. ) ;
#912 = LINE ( 'NONE', #396, #1172 ) ;
#913 = DIRECTION ( 'NONE',  ( 1.000000000000000000, -0.000000000000000000, 5.421010862427525868E-17 ) ) ;
#914 = VERTEX_POINT ( 'NONE', #1163 ) ;
#915 = FACE_BOUND ( 'NONE', #1087, .T. ) ;
#916 = ORIENTED_EDGE ( 'NONE', *, *, #957, .T. ) ;
#917 = COLOUR_RGB ( '',0.7921568627450980005, 0.8196078431372548767, 0.9333333333333333481 ) ;
#918 = EDGE_CURVE ( 'NONE', #970, #1079, #780, .T. ) ;
#919 = DIRECTION ( 'NONE',  ( 5.421010862427525868E-17, 0.000000000000000000, -1.000000000000000000 ) ) ;
#920 = VECTOR ( 'NONE', #847, 100.0000000000000000 ) ;
#921 = EDGE_CURVE ( 'NONE', #461, #741, #754, .T. ) ;
#922 = DIRECTION ( 'NONE',  ( 0.000000000000000000, -1.000000000000000000, 0.000000000000000000 ) ) ;
#923 = DIRECTION ( 'NONE',  ( 0.000000000000000000, 0.000000000000000000, 1.000000000000000000 ) ) ;
#924 = EDGE_LOOP ( 'NONE', ( #1128, #342, #433, #1262, #150, #916, #727, #984 ) ) ;
#925 = DIRECTION ( 'NONE',  ( 1.046590332414362988E-16, 0.000000000000000000, -1.000000000000000000 ) ) ;
#926 = CARTESIAN_POINT ( 'NONE',  ( 9.810799490519297450, 0.000000000000000000, 3.911347111178159253 ) ) ;
#927 = ORIENTED_EDGE ( 'NONE', *, *, #1202, .T. ) ;
#928 = PLANE ( 'NONE',  #434 ) ;
#929 = VERTEX_POINT ( 'NONE', #760 ) ;
#930 = DIRECTION ( 'NONE',  ( 0.000000000000000000, 0.000000000000000000, -1.000000000000000000 ) ) ;
#931 = AXIS2_PLACEMENT_3D ( 'NONE', #1258, #768, #72 ) ;
#932 = CARTESIAN_POINT ( 'NONE',  ( 10.31079949051929923, -3.000000000000000000, -2.718652888821843305 ) ) ;
#933 = AXIS2_PLACEMENT_3D ( 'NONE', #1121, #135, #1135 ) ;
#934 = EDGE_CURVE ( 'NONE', #532, #23, #1154, .T. ) ;
#935 = VERTEX_POINT ( 'NONE', #1060 ) ;
#936 = ORIENTED_EDGE ( 'NONE', *, *, #724, .F. ) ;
#937 = DIRECTION ( 'NONE',  ( 1.000000000000000000, 0.000000000000000000, -1.046590332414362988E-16 ) ) ;
#938 = VERTEX_POINT ( 'NONE', #808 ) ;
#939 = CARTESIAN_POINT ( 'NONE',  ( 4.900386181927895990, 0.000000000000000000, 3.911347111178159253 ) ) ;
#940 = CARTESIAN_POINT ( 'NONE',  ( 4.900386181927895102, 3.000000000000000000, -2.718652888821842861 ) ) ;
#941 = LINE ( 'NONE', #1263, #1191 ) ;
#942 = CARTESIAN_POINT ( 'NONE',  ( 10.31079949051929923, -2.700000000000000178, 0.2113471111781589085 ) ) ;
#943 = ORIENTED_EDGE ( 'NONE', *, *, #824, .T. ) ;
#944 = LINE ( 'NONE', #736, #1056 ) ;
#945 = LINE ( 'NONE', #45, #554 ) ;
#946 = VECTOR ( 'NONE', #425, 100.0000000000000000 ) ;
#947 = VECTOR ( 'NONE', #1055, 100.0000000000000000 ) ;
#948 = DIRECTION ( 'NONE',  ( 1.000000000000000000, 0.000000000000000000, -1.217349807703022362E-16 ) ) ;
#949 = DIRECTION ( 'NONE',  ( 1.000000000000000000, 0.000000000000000000, 1.046590332414362988E-16 ) ) ;
#950 = LINE ( 'NONE', #20, #1171 ) ;
#951 = CARTESIAN_POINT ( 'NONE',  ( 11.11079949051929816, -2.700000000000000178, 1.011347111178159119 ) ) ;
#952 = VERTEX_POINT ( 'NONE', #1189 ) ;
#953 = LINE ( 'NONE', #52, #693 ) ;
#954 = ORIENTED_EDGE ( 'NONE', *, *, #178, .F. ) ;
#955 = LINE ( 'NONE', #586, #29 ) ;
#956 = DIRECTION ( 'NONE',  ( 1.000000000000000000, -0.000000000000000000, -1.176083712526648949E-16 ) ) ;
#957 = EDGE_CURVE ( 'NONE', #1159, #1230, #296, .T. ) ;
#958 = DIRECTION ( 'NONE',  ( -0.000000000000000000, 1.000000000000000000, -0.000000000000000000 ) ) ;
#959 = ADVANCED_FACE ( 'NONE', ( #789 ), #601, .T. ) ;
#960 = VECTOR ( 'NONE', #189, 100.0000000000000000 ) ;
#961 = ORIENTED_EDGE ( 'NONE', *, *, #456, .T. ) ;
#962 = CARTESIAN_POINT ( 'NONE',  ( 6.400386181927894214, 1.000000000000000000, 3.911347111178156588 ) ) ;
#963 = ORIENTED_EDGE ( 'NONE', *, *, #70, .T. ) ;
#964 = AXIS2_PLACEMENT_3D ( 'NONE', #39, #764, #948 ) ;
#965 = CARTESIAN_POINT ( 'NONE',  ( 6.100386181927894391, 0.3000000000000000999, 3.611347111178158542 ) ) ;
#966 = ADVANCED_FACE ( 'NONE', ( #710 ), #304, .F. ) ;
#967 = VERTEX_POINT ( 'NONE', #495 ) ;
#968 = AXIS2_PLACEMENT_3D ( 'NONE', #476, #392, #979 ) ;
#969 = CARTESIAN_POINT ( 'NONE',  ( 9.810799490519297450, -3.000000000000000000, 3.911347111178159253 ) ) ;
#970 = VERTEX_POINT ( 'NONE', #1207 ) ;
#971 = CARTESIAN_POINT ( 'NONE',  ( 6.700386181927894924, -2.700000000000000178, 0.2113471111781589640 ) ) ;
#972 = CARTESIAN_POINT ( 'NONE',  ( 0.000000000000000000, 0.000000000000000000, 0.000000000000000000 ) ) ;
#973 = VERTEX_POINT ( 'NONE', #1278 ) ;
#974 = EDGE_CURVE ( 'NONE', #952, #634, #106, .T. ) ;
#975 = VECTOR ( 'NONE', #1026, 100.0000000000000000 ) ;
#976 = ORIENTED_EDGE ( 'NONE', *, *, #974, .T. ) ;
#977 = DIRECTION ( 'NONE',  ( 1.000000000000000000, 0.000000000000000000, -1.217349807703022362E-16 ) ) ;
#978 = CARTESIAN_POINT ( 'NONE',  ( 6.100386181927894391, 1.000000000000000000, 3.611347111178158542 ) ) ;
#979 = DIRECTION ( 'NONE',  ( 0.000000000000000000, -0.000000000000000000, 1.000000000000000000 ) ) ;
#980 = EDGE_CURVE ( 'NONE', #494, #739, #391, .T. ) ;
#981 = CARTESIAN_POINT ( 'NONE',  ( 0.000000000000000000, -3.000000000000000000, 0.000000000000000000 ) ) ;
#982 = ORIENTED_EDGE ( 'NONE', *, *, #1162, .F. ) ;
#983 = LINE ( 'NONE', #776, #1110 ) ;
#984 = ORIENTED_EDGE ( 'NONE', *, *, #617, .F. ) ;
#985 = DIRECTION ( 'NONE',  ( 1.000000000000000000, 0.000000000000000000, 2.168404344971010347E-16 ) ) ;
#986 = ORIENTED_EDGE ( 'NONE', *, *, #957, .F. ) ;
#987 = CARTESIAN_POINT ( 'NONE',  ( 6.100386181927894391, 1.000001200000000035, -2.418652888821833269 ) ) ;
#988 = LINE ( 'NONE', #1082, #1123 ) ;
#989 = ORIENTED_EDGE ( 'NONE', *, *, #1238, .F. ) ;
#990 = LINE ( 'NONE', #584, #1275 ) ;
#991 = ORIENTED_EDGE ( 'NONE', *, *, #1282, .F. ) ;
#992 = PLANE ( 'NONE',  #162 ) ;
#993 = ORIENTED_EDGE ( 'NONE', *, *, #626, .T. ) ;
#994 = DIRECTION ( 'NONE',  ( -1.000000000000000000, 0.000000000000000000, 1.217349807703022116E-16 ) ) ;
#995 = DIRECTION ( 'NONE',  ( -1.000000000000000000, 0.000000000000000000, 1.176083712526648949E-16 ) ) ;
#996 = CIRCLE ( 'NONE', #537, 0.1994162540431053954 ) ;
#997 = VERTEX_POINT ( 'NONE', #201 ) ;
#998 = CARTESIAN_POINT ( 'NONE',  ( 6.700386181927894924, -2.700000000000000178, 1.011347111178159119 ) ) ;
#999 = EDGE_LOOP ( 'NONE', ( #796, #404, #816, #1057 ) ) ;
#1000 = CARTESIAN_POINT ( 'NONE',  ( 6.100386181927894391, 0.3000000000000000999, 3.611347111178158542 ) ) ;
#1001 = ORIENTED_EDGE ( 'NONE', *, *, #264, .F. ) ;
#1002 = DIRECTION ( 'NONE',  ( 0.000000000000000000, -1.000000000000000000, 0.000000000000000000 ) ) ;
#1003 = ADVANCED_FACE ( 'NONE', ( #813 ), #1201, .F. ) ;
#1004 = LINE ( 'NONE', #27, #675 ) ;
#1005 = ORIENTED_EDGE ( 'NONE', *, *, #514, .F. ) ;
#1006 = DIRECTION ( 'NONE',  ( 0.000000000000000000, 0.000000000000000000, -1.000000000000000000 ) ) ;
#1007 = AXIS2_PLACEMENT_3D ( 'NONE', #512, #49, #1024 ) ;
#1008 = VECTOR ( 'NONE', #1138, 100.0000000000000000 ) ;
#1009 = CARTESIAN_POINT ( 'NONE',  ( 10.51079949051929674, 1.000001200000000035, -2.418652888821833269 ) ) ;
#1010 = ORIENTED_EDGE ( 'NONE', *, *, #214, .F. ) ;
#1011 = EDGE_CURVE ( 'NONE', #288, #469, #597, .T. ) ;
#1012 = EDGE_CURVE ( 'NONE', #651, #288, #308, .T. ) ;
#1013 = CARTESIAN_POINT ( 'NONE',  ( 6.304603267649733667, -2.700000000000000178, 0.6021165831146435554 ) ) ;
#1014 = EDGE_LOOP ( 'NONE', ( #1177, #943, #301, #647, #363, #190, #284, #127 ) ) ;
#1015 = DIRECTION ( 'NONE',  ( 0.000000000000000000, -1.000000000000000000, 0.000000000000000000 ) ) ;
#1016 = EDGE_CURVE ( 'NONE', #390, #929, #287, .T. ) ;
#1017 = LINE ( 'NONE', #1114, #314 ) ;
#1018 = EDGE_CURVE ( 'NONE', #1130, #967, #300, .T. ) ;
#1019 = EDGE_LOOP ( 'NONE', ( #837, #1105, #1277, #64 ) ) ;
#1020 = DIRECTION ( 'NONE',  ( -0.000000000000000000, -1.000000000000000000, -0.000000000000000000 ) ) ;
#1021 = ORIENTED_EDGE ( 'NONE', *, *, #1112, .F. ) ;
#1022 = CARTESIAN_POINT ( 'NONE',  ( 4.900386181927895102, 1.000000000000000000, -5.128696803102667327E-16 ) ) ;
#1023 = VECTOR ( 'NONE', #858, 100.0000000000000000 ) ;
#1024 = DIRECTION ( 'NONE',  ( -1.000000000000000000, 0.000000000000000000, -5.421010862427525868E-17 ) ) ;
#1025 = ORIENTED_EDGE ( 'NONE', *, *, #1242, .F. ) ;
#1026 = DIRECTION ( 'NONE',  ( 0.000000000000000000, 0.000000000000000000, 1.000000000000000000 ) ) ;
#1027 = VERTEX_POINT ( 'NONE', #207 ) ;
#1028 = FACE_BOUND ( 'NONE', #1274, .T. ) ;
#1029 = FACE_OUTER_BOUND ( 'NONE', #1210, .T. ) ;
#1030 = EDGE_LOOP ( 'NONE', ( #989, #834, #8, #1264 ) ) ;
#1031 = DIRECTION ( 'NONE',  ( -1.000000000000000000, 0.000000000000000000, 1.217349807703022362E-16 ) ) ;
#1032 = VERTEX_POINT ( 'NONE', #701 ) ;
#1033 = FACE_OUTER_BOUND ( 'NONE', #163, .T. ) ;
#1034 = FACE_OUTER_BOUND ( 'NONE', #360, .T. ) ;
#1035 = VECTOR ( 'NONE', #1020, 100.0000000000000000 ) ;
#1036 = VERTEX_POINT ( 'NONE', #614 ) ;
#1037 = VERTEX_POINT ( 'NONE', #188 ) ;
#1038 = DIRECTION ( 'NONE',  ( 0.000000000000000000, -1.000000000000000000, 0.000000000000000000 ) ) ;
#1039 = ORIENTED_EDGE ( 'NONE', *, *, #870, .T. ) ;
#1040 = CARTESIAN_POINT ( 'NONE',  ( 6.700386181927894924, -3.000000000000000000, 0.2113471111781589640 ) ) ;
#1041 = EDGE_CURVE ( 'NONE', #21, #1032, #671, .T. ) ;
#1042 = CARTESIAN_POINT ( 'NONE',  ( 6.304603267649733667, -3.000000000000000000, 0.6021165831146435554 ) ) ;
#1043 = EDGE_LOOP ( 'NONE', ( #124, #286, #100, #572 ) ) ;
#1044 = LINE ( 'NONE', #648, #464 ) ;
#1045 = LINE ( 'NONE', #142, #1098 ) ;
#1046 = ORIENTED_EDGE ( 'NONE', *, *, #636, .T. ) ;
#1047 = CARTESIAN_POINT ( 'NONE',  ( 0.000000000000000000, 0.000000000000000000, 0.000000000000000000 ) ) ;
#1048 = CARTESIAN_POINT ( 'NONE',  ( 6.700386181927894924, -2.700000000000000178, 0.2113471111781589640 ) ) ;
#1049 = VECTOR ( 'NONE', #913, 100.0000000000000000 ) ;
#1050 = DIRECTION ( 'NONE',  ( 0.000000000000000000, -1.000000000000000000, 0.000000000000000000 ) ) ;
#1051 = ADVANCED_FACE ( 'NONE', ( #593 ), #992, .T. ) ;
#1052 = ORIENTED_EDGE ( 'NONE', *, *, #212, .T. ) ;
#1053 = CARTESIAN_POINT ( 'NONE',  ( 6.304603267649733667, -3.000000000000000000, 0.8015328371577489230 ) ) ;
#1054 = DIRECTION ( 'NONE',  ( 1.000000000000000000, -0.000000000000000000, -1.176083712526648949E-16 ) ) ;
#1055 = DIRECTION ( 'NONE',  ( 1.000000000000000000, -0.000000000000000000, -1.176083712526648949E-16 ) ) ;
#1056 = VECTOR ( 'NONE', #622, 100.0000000000000000 ) ;
#1057 = ORIENTED_EDGE ( 'NONE', *, *, #1205, .T. ) ;
#1058 = CARTESIAN_POINT ( 'NONE',  ( 10.71501657624113690, -2.700000000000000178, 0.6021165831146435554 ) ) ;
#1059 = ORIENTED_EDGE ( 'NONE', *, *, #456, .F. ) ;
#1060 = CARTESIAN_POINT ( 'NONE',  ( 10.31079949051929923, -3.000000000000000000, 1.011347111178158897 ) ) ;
#1061 = PLANE ( 'NONE',  #1070 ) ;
#1062 = EDGE_LOOP ( 'NONE', ( #1206, #410, #4, #1097 ) ) ;
#1063 = PLANE ( 'NONE',  #587 ) ;
#1064 = ORIENTED_EDGE ( 'NONE', *, *, #362, .T. ) ;
#1065 = DIRECTION ( 'NONE',  ( 1.000000000000000000, 0.000000000000000000, -0.000000000000000000 ) ) ;
#1066 = VECTOR ( 'NONE', #1143, 100.0000000000000000 ) ;
#1067 = EDGE_CURVE ( 'NONE', #1032, #1170, #896, .T. ) ;
#1068 = LINE ( 'NONE', #713, #960 ) ;
#1069 = EDGE_LOOP ( 'NONE', ( #954, #812, #17, #825 ) ) ;
#1070 = AXIS2_PLACEMENT_3D ( 'NONE', #940, #836, #1247 ) ;
#1071 = DIRECTION ( 'NONE',  ( 0.000000000000000000, -1.000000000000000000, 0.000000000000000000 ) ) ;
#1072 = ORIENTED_EDGE ( 'NONE', *, *, #821, .F. ) ;
#1073 = EDGE_CURVE ( 'NONE', #213, #133, #1288, .T. ) ;
#1074 = CARTESIAN_POINT ( 'NONE',  ( 10.71501657624113690, -2.700000000000000178, 0.6021165831146435554 ) ) ;
#1075 = DIRECTION ( 'NONE',  ( 0.000000000000000000, -1.000000000000000000, 0.000000000000000000 ) ) ;
#1076 = CARTESIAN_POINT ( 'NONE',  ( 9.810799490519297450, -3.000000000000000000, 3.911347111178159253 ) ) ;
#1077 = CARTESIAN_POINT ( 'NONE',  ( 6.400386181927894214, 1.000000000000000000, 3.911347111178156588 ) ) ;
#1078 = ORIENTED_EDGE ( 'NONE', *, *, #788, .T. ) ;
#1079 = VERTEX_POINT ( 'NONE', #515 ) ;
#1080 = CARTESIAN_POINT ( 'NONE',  ( 6.304603267649733667, -2.700000000000000178, 0.6021165831146435554 ) ) ;
#1081 = PLANE ( 'NONE',  #968 ) ;
#1082 = CARTESIAN_POINT ( 'NONE',  ( 4.900386181927895102, 1.000001200000000035, -2.418652888821833269 ) ) ;
#1083 = ORIENTED_EDGE ( 'NONE', *, *, #1185, .T. ) ;
#1084 = LINE ( 'NONE', #186, #715 ) ;
#1085 = STYLED_ITEM ( 'NONE', ( #483 ), #644 ) ;
#1086 = VECTOR ( 'NONE', #445, 100.0000000000000000 ) ;
#1087 = EDGE_LOOP ( 'NONE', ( #608, #775 ) ) ;
#1088 = DIRECTION ( 'NONE',  ( 0.000000000000000000, -1.000000000000000000, 0.000000000000000000 ) ) ;
#1089 = CARTESIAN_POINT ( 'NONE',  ( 6.700386181927894924, -3.000000000000000000, 0.2113471111781589640 ) ) ;
#1090 = VECTOR ( 'NONE', #6, 100.0000000000000000 ) ;
#1091 = EDGE_CURVE ( 'NONE', #585, #935, #912, .T. ) ;
#1092 = VERTEX_POINT ( 'NONE', #22 ) ;
#1093 = ADVANCED_FACE ( 'NONE', ( #725 ), #428, .F. ) ;
#1094 = CARTESIAN_POINT ( 'NONE',  ( 5.900386181927895102, -3.000000000000000000, 3.911347111178158809 ) ) ;
#1095 = PRESENTATION_STYLE_ASSIGNMENT (( #681 ) ) ;
#1096 = VECTOR ( 'NONE', #54, 100.0000000000000000 ) ;
#1097 = ORIENTED_EDGE ( 'NONE', *, *, #518, .F. ) ;
#1098 = VECTOR ( 'NONE', #640, 100.0000000000000000 ) ;
#1099 = DIRECTION ( 'NONE',  ( -1.000000000000000000, 0.000000000000000000, -1.046590332414362988E-16 ) ) ;
#1100 = EDGE_CURVE ( 'NONE', #886, #222, #1215, .T. ) ;
#1101 = ADVANCED_FACE ( 'NONE', ( #202 ), #103, .F. ) ;
#1102 = CARTESIAN_POINT ( 'NONE',  ( 6.304603267649733667, -2.700000000000000178, 0.6021165831146435554 ) ) ;
#1103 = ORIENTED_EDGE ( 'NONE', *, *, #861, .T. ) ;
#1104 = DIRECTION ( 'NONE',  ( 1.000000000000000000, -0.000000000000000000, -1.176083712526648949E-16 ) ) ;
#1105 = ORIENTED_EDGE ( 'NONE', *, *, #788, .F. ) ;
#1106 = ADVANCED_FACE ( 'NONE', ( #424 ), #1061, .F. ) ;
#1107 = LINE ( 'NONE', #97, #1049 ) ;
#1108 = ORIENTED_EDGE ( 'NONE', *, *, #1018, .T. ) ;
#1109 = CARTESIAN_POINT ( 'NONE',  ( 6.400386181927894214, 1.000000000000000000, 3.911347111178156588 ) ) ;
#1110 = VECTOR ( 'NONE', #1192, 100.0000000000000000 ) ;
#1111 = VECTOR ( 'NONE', #550, 100.0000000000000000 ) ;
#1112 = EDGE_CURVE ( 'NONE', #1092, #261, #659, .T. ) ;
#1113 = EDGE_CURVE ( 'NONE', #591, #397, #451, .T. ) ;
#1114 = CARTESIAN_POINT ( 'NONE',  ( 10.71501657624113690, -2.700000000000000178, 0.8015328371577489230 ) ) ;
#1115 = EDGE_LOOP ( 'NONE', ( #77, #1179, #633, #516 ) ) ;
#1116 = CARTESIAN_POINT ( 'NONE',  ( 10.51079949051929674, 1.000000000000000000, 0.000000000000000000 ) ) ;
#1117 = ORIENTED_EDGE ( 'NONE', *, *, #485, .F. ) ;
#1118 = DIRECTION ( 'NONE',  ( 1.000000000000000000, 0.000000000000000000, 0.000000000000000000 ) ) ;
#1119 = DIRECTION ( 'NONE',  ( -1.000000000000000000, 0.000000000000000000, 0.000000000000000000 ) ) ;
#1120 = VERTEX_POINT ( 'NONE', #860 ) ;
#1121 = CARTESIAN_POINT ( 'NONE',  ( 6.304603267649733667, -3.000000000000000000, 0.6021165831146435554 ) ) ;
#1122 = EDGE_LOOP ( 'NONE', ( #545, #87, #422, #993, #407, #901, #84, #583 ) ) ;
#1123 = VECTOR ( 'NONE', #899, 100.0000000000000000 ) ;
#1124 = CARTESIAN_POINT ( 'NONE',  ( 4.410413308591403236, -3.000000000000000000, 0.000000000000000000 ) ) ;
#1125 = CARTESIAN_POINT ( 'NONE',  ( 9.810799490519297450, -3.000000000000000000, 3.911347111178159253 ) ) ;
#1126 = AXIS2_PLACEMENT_3D ( 'NONE', #1140, #1071, #1235 ) ;
#1127 = ORIENTED_EDGE ( 'NONE', *, *, #688, .T. ) ;
#1128 = ORIENTED_EDGE ( 'NONE', *, *, #1113, .F. ) ;
#1129 = PLANE ( 'NONE',  #639 ) ;
#1130 = VERTEX_POINT ( 'NONE', #762 ) ;
#1131 = LINE ( 'NONE', #1022, #256 ) ;
#1132 = VECTOR ( 'NONE', #1088, 100.0000000000000000 ) ;
#1133 = LINE ( 'NONE', #1048, #511 ) ;
#1134 = CARTESIAN_POINT ( 'NONE',  ( 9.810799490519297450, -3.000000000000000000, -2.718652888821843305 ) ) ;
#1135 = DIRECTION ( 'NONE',  ( 0.000000000000000000, 0.000000000000000000, -1.000000000000000000 ) ) ;
#1136 = ORIENTED_EDGE ( 'NONE', *, *, #374, .T. ) ;
#1137 = CARTESIAN_POINT ( 'NONE',  ( 5.400386181927895102, -3.000000000000000000, 3.911347111178159253 ) ) ;
#1138 = DIRECTION ( 'NONE',  ( -1.046590332414362988E-16, 0.000000000000000000, -1.000000000000000000 ) ) ;
#1139 = VECTOR ( 'NONE', #165, 100.0000000000000000 ) ;
#1140 = CARTESIAN_POINT ( 'NONE',  ( 10.71501657624113690, -3.000000000000000000, 0.6021165831146435554 ) ) ;
#1141 = DIRECTION ( 'NONE',  ( -1.046590332414362864E-16, -0.000000000000000000, 1.000000000000000000 ) ) ;
#1142 = PLANE ( 'NONE',  #797 ) ;
#1143 = DIRECTION ( 'NONE',  ( -1.000000000000000000, 0.000000000000000000, 1.176083712526648949E-16 ) ) ;
#1144 = EDGE_CURVE ( 'NONE', #591, #973, #749, .T. ) ;
#1145 = ORIENTED_EDGE ( 'NONE', *, *, #215, .F. ) ;
#1146 = DIRECTION ( 'NONE',  ( 0.000000000000000000, -1.000000000000000000, 0.000000000000000000 ) ) ;
#1147 = ADVANCED_FACE ( 'NONE', ( #643, #560 ), #50, .F. ) ;
#1148 = ORIENTED_EDGE ( 'NONE', *, *, #504, .T. ) ;
#1149 = CARTESIAN_POINT ( 'NONE',  ( 10.51079949051929674, 0.3000000000000000999, 3.611347111178158542 ) ) ;
#1150 = CARTESIAN_POINT ( 'NONE',  ( 10.31079949051929923, -2.700000000000000178, 0.2113471111781589085 ) ) ;
#1151 = CARTESIAN_POINT ( 'NONE',  ( 6.100386181927894391, 0.3000000000000000999, -2.418652888821833269 ) ) ;
#1152 = ORIENTED_EDGE ( 'NONE', *, *, #771, .T. ) ;
#1153 = CARTESIAN_POINT ( 'NONE',  ( 10.71501657624113690, -2.700000000000000178, 0.4027003290715381878 ) ) ;
#1154 = LINE ( 'NONE', #258, #90 ) ;
#1155 = DIRECTION ( 'NONE',  ( 0.000000000000000000, -1.000000000000000000, 0.000000000000000000 ) ) ;
#1156 = DIRECTION ( 'NONE',  ( -1.000000000000000000, 0.000000000000000000, 1.217349807703022116E-16 ) ) ;
#1157 = AXIS2_PLACEMENT_3D ( 'NONE', #971, #1065, #179 ) ;
#1158 = AXIS2_PLACEMENT_3D ( 'NONE', #620, #833, #329 ) ;
#1159 = VERTEX_POINT ( 'NONE', #154 ) ;
#1160 = CARTESIAN_POINT ( 'NONE',  ( 5.900386181927895102, 0.000000000000000000, -2.718652888821843305 ) ) ;
#1161 = ORIENTED_EDGE ( 'NONE', *, *, #712, .T. ) ;
#1162 = EDGE_CURVE ( 'NONE', #23, #110, #1253, .T. ) ;
#1163 = CARTESIAN_POINT ( 'NONE',  ( 9.310799490519299226, 1.000000000000000000, 3.611347111178158542 ) ) ;
#1164 = LINE ( 'NONE', #358, #204 ) ;
#1165 = VERTEX_POINT ( 'NONE', #744 ) ;
#1166 = CARTESIAN_POINT ( 'NONE',  ( 4.410413308591403236, 1.000000000000000000, 3.611347111178159430 ) ) ;
#1167 = CARTESIAN_POINT ( 'NONE',  ( 5.400386181927895102, -3.000000000000000000, 3.911347111178159253 ) ) ;
#1168 = APPLICATION_PROTOCOL_DEFINITION ( 'draft international standard', 'automotive_design', 1998, #817 ) ;
#1169 = CYLINDRICAL_SURFACE ( 'NONE', #413, 0.1994162540431053954 ) ;
#1170 = VERTEX_POINT ( 'NONE', #260 ) ;
#1171 = VECTOR ( 'NONE', #530, 100.0000000000000000 ) ;
#1172 = VECTOR ( 'NONE', #798, 100.0000000000000000 ) ;
#1173 = DIRECTION ( 'NONE',  ( 1.046590332414362988E-16, 0.000000000000000000, -1.000000000000000000 ) ) ;
#1174 = ORIENTED_EDGE ( 'NONE', *, *, #70, .F. ) ;
#1175 = CARTESIAN_POINT ( 'NONE',  ( 11.11079949051929816, -2.700000000000000178, 1.011347111178159119 ) ) ;
#1176 = FACE_OUTER_BOUND ( 'NONE', #999, .T. ) ;
#1177 = ORIENTED_EDGE ( 'NONE', *, *, #724, .T. ) ;
#1178 = DIRECTION ( 'NONE',  ( 1.000000000000000000, 0.000000000000000000, -1.176083712526648949E-16 ) ) ;
#1179 = ORIENTED_EDGE ( 'NONE', *, *, #131, .F. ) ;
#1180 = CARTESIAN_POINT ( 'NONE',  ( 4.900386181927895990, 1.000001200000000035, 3.611347111178158542 ) ) ;
#1181 = APPLICATION_PROTOCOL_DEFINITION ( 'draft international standard', 'automotive_design', 1998, #557 ) ;
#1182 = ORIENTED_EDGE ( 'NONE', *, *, #504, .F. ) ;
#1183 = DIRECTION ( 'NONE',  ( 0.000000000000000000, -0.000000000000000000, 1.000000000000000000 ) ) ;
#1184 = AXIS2_PLACEMENT_3D ( 'NONE', #1219, #338, #116 ) ;
#1185 = EDGE_CURVE ( 'NONE', #689, #1270, #654, .T. ) ;
#1186 = VECTOR ( 'NONE', #36, 100.0000000000000000 ) ;
#1187 = ORIENTED_EDGE ( 'NONE', *, *, #25, .T. ) ;
#1188 = EDGE_CURVE ( 'NONE', #651, #1165, #1133, .T. ) ;
#1189 = CARTESIAN_POINT ( 'NONE',  ( 4.900386181927895990, 1.000000000000000222, 3.911347111178159253 ) ) ;
#1190 =( LENGTH_UNIT ( ) NAMED_UNIT ( * ) SI_UNIT ( .CENTI., .METRE. ) );
#1191 = VECTOR ( 'NONE', #361, 100.0000000000000000 ) ;
#1192 = DIRECTION ( 'NONE',  ( -0.000000000000000000, 1.000000000000000000, -0.000000000000000000 ) ) ;
#1193 = VECTOR ( 'NONE', #781, 100.0000000000000000 ) ;
#1194 = ORIENTED_EDGE ( 'NONE', *, *, #1205, .F. ) ;
#1195 = ADVANCED_FACE ( 'NONE', ( #1034 ), #146, .T. ) ;
#1196 = DIRECTION ( 'NONE',  ( -1.046590332414362988E-16, 0.000000000000000000, 1.000000000000000000 ) ) ;
#1197 = ORIENTED_EDGE ( 'NONE', *, *, #485, .T. ) ;
#1198 = EDGE_CURVE ( 'NONE', #895, #472, #755, .T. ) ;
#1199 = EDGE_LOOP ( 'NONE', ( #832, #105, #711, #394 ) ) ;
#1200 = CIRCLE ( 'NONE', #933, 0.1994162540431053954 ) ;
#1201 = PLANE ( 'NONE',  #575 ) ;
#1202 = EDGE_CURVE ( 'NONE', #110, #1230, #664, .T. ) ;
#1203 = EDGE_CURVE ( 'NONE', #118, #110, #233, .T. ) ;
#1204 = DIRECTION ( 'NONE',  ( 0.000000000000000000, -1.000000000000000000, 0.000000000000000000 ) ) ;
#1205 = EDGE_CURVE ( 'NONE', #1170, #807, #1233, .T. ) ;
#1206 = ORIENTED_EDGE ( 'NONE', *, *, #561, .F. ) ;
#1207 = CARTESIAN_POINT ( 'NONE',  ( 11.11079949051929816, -2.700000000000000178, 1.011347111178159119 ) ) ;
#1208 = CARTESIAN_POINT ( 'NONE',  ( 9.810799490519297450, -3.000000000000000000, -2.718652888821843305 ) ) ;
#1209 = LINE ( 'NONE', #855, #946 ) ;
#1210 = EDGE_LOOP ( 'NONE', ( #1108, #62, #578, #160, #208, #68, #570, #57 ) ) ;
#1211 = LINE ( 'NONE', #827, #1035 ) ;
#1212 = VERTEX_POINT ( 'NONE', #438 ) ;
#1213 = VECTOR ( 'NONE', #687, 100.0000000000000000 ) ;
#1214 = EDGE_CURVE ( 'NONE', #213, #140, #130, .T. ) ;
#1215 = LINE ( 'NONE', #225, #205 ) ;
#1216 = DIRECTION ( 'NONE',  ( 0.000000000000000000, 0.000000000000000000, -1.000000000000000000 ) ) ;
#1217 = EDGE_LOOP ( 'NONE', ( #562, #682, #1152, #10, #1148, #619, #785, #787 ) ) ;
#1218 = DIRECTION ( 'NONE',  ( -1.000000000000000000, 0.000000000000000000, 1.176083712526648949E-16 ) ) ;
#1219 = CARTESIAN_POINT ( 'NONE',  ( 11.11079949051929816, -2.700000000000000178, 0.2113471111781589640 ) ) ;
#1220 = CARTESIAN_POINT ( 'NONE',  ( 10.81079949051929745, 1.000000000000000000, -2.718652888821843305 ) ) ;
#1221 = ORIENTED_EDGE ( 'NONE', *, *, #653, .T. ) ;
#1222 = CARTESIAN_POINT ( 'NONE',  ( 9.310799490519299226, 1.000000000000000222, 3.911347111178159253 ) ) ;
#1223 = CARTESIAN_POINT ( 'NONE',  ( 10.51079949051929674, 1.000000000000000000, -2.418652888821833269 ) ) ;
#1224 = CARTESIAN_POINT ( 'NONE',  ( 9.310799490519297450, 1.000001200000000035, -2.418652888821833269 ) ) ;
#1225 = ORIENTED_EDGE ( 'NONE', *, *, #408, .F. ) ;
#1226 = ORIENTED_EDGE ( 'NONE', *, *, #1202, .F. ) ;
#1227 = AXIS2_PLACEMENT_3D ( 'NONE', #951, #351, #1234 ) ;
#1228 = LINE ( 'NONE', #747, #32 ) ;
#1229 = EDGE_CURVE ( 'NONE', #739, #472, #444, .T. ) ;
#1230 = VERTEX_POINT ( 'NONE', #339 ) ;
#1231 = AXIS2_PLACEMENT_3D ( 'NONE', #12, #412, #320 ) ;
#1232 = FACE_OUTER_BOUND ( 'NONE', #1030, .T. ) ;
#1233 = CIRCLE ( 'NONE', #905, 0.1994162540431053954 ) ;
#1234 = DIRECTION ( 'NONE',  ( 1.000000000000000000, 0.000000000000000000, 2.168404344971010347E-16 ) ) ;
#1235 = DIRECTION ( 'NONE',  ( 0.000000000000000000, 0.000000000000000000, -1.000000000000000000 ) ) ;
#1236 = ORIENTED_EDGE ( 'NONE', *, *, #934, .F. ) ;
#1237 = DIRECTION ( 'NONE',  ( 0.000000000000000000, 0.000000000000000000, 1.000000000000000000 ) ) ;
#1238 = EDGE_CURVE ( 'NONE', #929, #585, #239, .T. ) ;
#1239 = DIRECTION ( 'NONE',  ( -0.000000000000000000, 1.000000000000000000, 0.000000000000000000 ) ) ;
#1240 = EDGE_CURVE ( 'NONE', #753, #369, #945, .T. ) ;
#1241 = LINE ( 'NONE', #370, #348 ) ;
#1242 = EDGE_CURVE ( 'NONE', #1120, #895, #73, .T. ) ;
#1243 = ORIENTED_EDGE ( 'NONE', *, *, #1012, .T. ) ;
#1244 = CARTESIAN_POINT ( 'NONE',  ( 5.900386181927895102, -2.700000000000000178, 0.2113471111781589085 ) ) ;
#1245 = AXIS2_PLACEMENT_3D ( 'NONE', #74, #43, #243 ) ;
#1246 = CARTESIAN_POINT ( 'NONE',  ( 6.700386181927894924, -2.700000000000000178, 1.011347111178159119 ) ) ;
#1247 = DIRECTION ( 'NONE',  ( -1.046590332414362988E-16, 0.000000000000000000, -1.000000000000000000 ) ) ;
#1248 = CLOSED_SHELL ( 'NONE', ( #885, #694, #655, #966, #684, #254, #649, #959, #115, #46, #232, #603, #1051, #1280, #1106, #911, #846, #605, #581, #609 ) ) ;
#1249 = ORIENTED_EDGE ( 'NONE', *, *, #1041, .F. ) ;
#1250 = CARTESIAN_POINT ( 'NONE',  ( 4.900386181927895102, 0.000000000000000000, -2.718652888821842861 ) ) ;
#1251 = VERTEX_POINT ( 'NONE', #800 ) ;
#1252 = LINE ( 'NONE', #249, #721 ) ;
#1253 = LINE ( 'NONE', #344, #1066 ) ;
#1254 = VECTOR ( 'NONE', #245, 100.0000000000000000 ) ;
#1255 = ORIENTED_EDGE ( 'NONE', *, *, #743, .T. ) ;
#1256 = CARTESIAN_POINT ( 'NONE',  ( 5.900386181927895102, 0.000000000000000000, 3.911347111178158809 ) ) ;
#1257 = EDGE_LOOP ( 'NONE', ( #92, #453, #1117, #991 ) ) ;
#1258 = CARTESIAN_POINT ( 'NONE',  ( 10.51079949051929674, 1.000001200000000035, 3.611347111178158542 ) ) ;
#1259 = DIRECTION ( 'NONE',  ( 0.000000000000000000, -0.000000000000000000, 1.000000000000000000 ) ) ;
#1260 = VECTOR ( 'NONE', #1237, 100.0000000000000000 ) ;
#1261 = VECTOR ( 'NONE', #956, 100.0000000000000000 ) ;
#1262 = ORIENTED_EDGE ( 'NONE', *, *, #1240, .F. ) ;
#1263 = CARTESIAN_POINT ( 'NONE',  ( 6.400386181927894214, 0.000000000000000000, -2.718652888821843305 ) ) ;
#1264 = ORIENTED_EDGE ( 'NONE', *, *, #420, .T. ) ;
#1265 = FACE_OUTER_BOUND ( 'NONE', #170, .T. ) ;
#1266 =( NAMED_UNIT ( * ) SI_UNIT ( $, .STERADIAN. ) SOLID_ANGLE_UNIT ( ) );
#1267 = FACE_OUTER_BOUND ( 'NONE', #1115, .T. ) ;
#1268 = ORIENTED_EDGE ( 'NONE', *, *, #123, .F. ) ;
#1269 = CARTESIAN_POINT ( 'NONE',  ( 5.900386181927895102, -3.000000000000000000, -2.718652888821843305 ) ) ;
#1270 = VERTEX_POINT ( 'NONE', #867 ) ;
#1271 = LINE ( 'NONE', #565, #894 ) ;
#1272 = DIRECTION ( 'NONE',  ( -1.000000000000000000, -0.000000000000000000, 1.387778780781446464E-15 ) ) ;
#1273 = FILL_AREA_STYLE ('',( #210 ) ) ;
#1274 = EDGE_LOOP ( 'NONE', ( #799, #197 ) ) ;
#1275 = VECTOR ( 'NONE', #379, 100.0000000000000000 ) ;
#1276 = DIRECTION ( 'NONE',  ( 1.176083712526648949E-16, -0.000000000000000000, 1.000000000000000000 ) ) ;
#1277 = ORIENTED_EDGE ( 'NONE', *, *, #234, .T. ) ;
#1278 = CARTESIAN_POINT ( 'NONE',  ( 9.310799490519299226, 0.000000000000000000, 3.911347111178159253 ) ) ;
#1279 = LINE ( 'NONE', #873, #302 ) ;
#1280 = ADVANCED_FACE ( 'NONE', ( #482 ), #670, .F. ) ;
#1281 = EDGE_CURVE ( 'NONE', #1159, #753, #881, .T. ) ;
#1282 = EDGE_CURVE ( 'NONE', #1270, #317, #267, .T. ) ;
#1283 = ADVANCED_FACE ( 'NONE', ( #398 ), #1081, .T. ) ;
#1284 = SURFACE_STYLE_USAGE ( .BOTH. , #891 ) ;
#1285 = EDGE_LOOP ( 'NONE', ( #1226, #982, #1236, #680 ) ) ;
#1286 = DIRECTION ( 'NONE',  ( -1.046590332414362988E-16, 0.000000000000000000, -1.000000000000000000 ) ) ;
#1287 = ORIENTED_EDGE ( 'NONE', *, *, #138, .T. ) ;
#1288 = LINE ( 'NONE', #101, #779 ) ;
#1289 = EDGE_CURVE ( 'NONE', #606, #118, #180, .T. ) ;
#1290 = CARTESIAN_POINT ( 'NONE',  ( 10.81079949051929745, 1.000000000000000000, -2.718652888821843305 ) ) ;
#1291 = EDGE_LOOP ( 'NONE', ( #756, #484, #564, #672 ) ) ;
#1292 = CARTESIAN_POINT ( 'NONE',  ( 0.000000000000000000, 1.000000000000000000, 0.000000000000000000 ) ) ;
ENDSEC;
END-ISO-10303-21;
